<?xml version="1.0" standalone="no"?>
<!DOCTYPE svg PUBLIC "-//W3C//DTD SVG 20010904//EN"
 "http://www.w3.org/TR/2001/REC-SVG-20010904/DTD/svg10.dtd">
<svg version="1.0" xmlns="http://www.w3.org/2000/svg"
 width="512.000000pt" height="512.000000pt" viewBox="0 0 512.000000 512.000000"
 preserveAspectRatio="xMidYMid meet">

<g transform="translate(0.000000,512.000000) scale(0.100000,-0.100000)"
fill="#000000" stroke="none">
<path d="M1442 5100 c-93 -25 -146 -48 -219 -98 -110 -76 -207 -196 -253 -312
-11 -28 -20 -53 -20 -55 0 -3 84 -5 186 -5 l187 0 49 46 c26 25 72 56 101 69
l52 25 1270 0 1270 0 60 -29 c66 -31 130 -94 167 -163 l23 -43 0 -1610 0
-1610 -23 -43 c-33 -62 -88 -119 -147 -153 -95 -54 -85 -168 -85 1019 0 1163
4 1086 -68 1227 -32 63 -80 114 -461 496 -381 381 -433 429 -496 461 -137 71
-94 68 -1087 68 -861 0 -898 -1 -974 -20 -129 -32 -217 -82 -315 -180 -94 -94
-133 -154 -176 -275 l-28 -80 0 -1635 0 -1635 23 -75 c37 -118 85 -195 181
-291 99 -98 183 -146 315 -179 77 -19 112 -20 1280 -20 1322 0 1269 -2 1408
63 236 110 398 353 398 598 0 67 1 69 28 74 82 18 201 63 255 97 138 89 243
223 293 374 l29 89 0 1630 0 1630 -29 89 c-74 225 -260 398 -490 456 -77 19
-113 20 -1355 19 -1221 0 -1279 -1 -1349 -19z m1358 -1262 c0 -295 25 -388
136 -508 66 -70 127 -111 214 -141 59 -20 88 -23 312 -27 241 -4 246 -5 252
-26 11 -39 7 -2450 -4 -2507 -22 -114 -88 -200 -193 -250 l-62 -29 -1200 0
-1200 0 -60 29 c-66 31 -130 94 -167 163 l-23 43 0 1610 0 1610 23 43 c46 87
128 157 212 183 14 4 415 8 893 8 l867 1 0 -202z"/>
<path d="M1285 3118 c-186 -65 -183 -324 4 -387 45 -15 1109 -16 1164 0 79 22
147 111 147 194 0 83 -68 172 -147 194 -52 15 -1127 13 -1168 -1z"/>
<path d="M1270 2239 c-47 -19 -100 -81 -116 -136 -14 -48 -14 -58 0 -107 19
-63 73 -118 133 -136 27 -8 317 -10 994 -8 l956 3 41 29 c57 39 96 119 89 182
-7 63 -52 132 -106 161 l-44 23 -961 -1 c-609 0 -970 -4 -986 -10z"/>
<path d="M1280 1367 c-19 -6 -53 -30 -76 -52 -94 -95 -73 -243 44 -312 l47
-28 960 0 c954 0 960 0 1000 21 86 45 130 143 105 235 -15 56 -80 123 -135
138 -56 15 -1896 14 -1945 -2z"/>
</g>
</svg>
