<?xml version="1.0" standalone="no"?>
<!DOCTYPE svg PUBLIC "-//W3C//DTD SVG 20010904//EN"
 "http://www.w3.org/TR/2001/REC-SVG-20010904/DTD/svg10.dtd">
<svg version="1.0" xmlns="http://www.w3.org/2000/svg"
 width="4096.000000pt" height="4096.000000pt" viewBox="0 0 4096.000000 4096.000000"
 preserveAspectRatio="xMidYMid meet">

<g transform="translate(0.000000,4096.000000) scale(0.100000,-0.100000)"
fill="#000000" stroke="none">
<path d="M2265 40948 c-104 -11 -296 -50 -410 -83 -602 -171 -1132 -569 -1467
-1102 -199 -317 -337 -713 -377 -1085 -15 -136 -15 -10660 0 -10796 36 -338
147 -683 314 -977 123 -218 243 -374 430 -561 381 -381 841 -617 1390 -715
151 -27 508 -37 677 -20 589 61 1126 318 1549 740 359 360 592 787 698 1282
54 252 51 22 51 4276 l0 3933 3930 0 c2688 0 3961 3 4028 11 368 40 739 167
1062 363 327 200 646 518 846 846 252 413 374 851 374 1338 0 209 -11 325 -46
502 -102 508 -334 941 -703 1311 -419 418 -952 675 -1533 738 -123 14 -10694
13 -10813 -1z"/>
<path d="M27865 40948 c-44 -5 -136 -20 -205 -34 -510 -103 -942 -335 -1311
-703 -368 -369 -601 -803 -703 -1311 -35 -177 -46 -293 -46 -500 0 -207 11
-323 46 -500 81 -404 241 -752 502 -1090 36 -47 129 -148 207 -226 379 -379
822 -608 1385 -716 114 -21 130 -22 1368 -27 l1252 -6 -12620 -12620 -12620
-12620 0 1193 c0 768 -4 1227 -11 1290 -63 582 -319 1113 -738 1533 -424 423
-959 679 -1549 740 -169 17 -526 7 -677 -20 -553 -98 -1008 -333 -1396 -720
-263 -264 -452 -553 -582 -891 -77 -200 -134 -433 -156 -642 -15 -136 -15
-10660 0 -10796 32 -301 122 -600 266 -884 383 -759 1123 -1278 1973 -1383
110 -13 720 -15 5428 -15 3650 0 5333 3 5400 11 581 63 1114 320 1533 738 418
419 675 952 738 1533 14 125 14 431 0 556 -63 582 -319 1113 -738 1533 -389
388 -816 609 -1391 721 l-115 22 -2583 6 -2582 5 13950 13950 13950 13950 0
-2523 c0 -1701 3 -2554 11 -2620 63 -581 320 -1114 738 -1533 388 -387 842
-622 1396 -720 151 -27 508 -37 677 -20 591 61 1124 316 1549 740 419 420 675
952 738 1533 15 136 15 10660 0 10796 -92 854 -617 1615 -1379 2002 -289 146
-587 236 -892 269 -123 14 -10694 13 -10813 -1z"/>
<path d="M38105 15349 c-452 -54 -887 -230 -1263 -511 -125 -93 -387 -355
-480 -480 -286 -383 -462 -824 -511 -1280 -8 -67 -11 -1340 -11 -4028 l0
-3930 -3932 0 c-2551 0 -3965 -4 -4023 -10 -1000 -111 -1842 -791 -2159 -1743
-84 -254 -117 -446 -123 -734 -6 -247 4 -378 43 -573 102 -508 335 -942 703
-1311 420 -419 951 -675 1533 -738 136 -15 10660 -15 10796 0 454 49 900 227
1279 510 126 94 388 356 482 482 283 379 461 825 510 1279 15 136 15 10660 0
10796 -92 855 -616 1615 -1380 2002 -246 125 -475 201 -754 251 -97 17 -168
22 -375 25 -140 1 -291 -2 -335 -7z"/>
</g>
</svg>
