<?xml version="1.0" standalone="no"?>
<!DOCTYPE svg PUBLIC "-//W3C//DTD SVG 20010904//EN"
 "http://www.w3.org/TR/2001/REC-SVG-20010904/DTD/svg10.dtd">
<svg version="1.0" xmlns="http://www.w3.org/2000/svg"
 width="4096.000000pt" height="4096.000000pt" viewBox="0 0 4096.000000 4096.000000"
 preserveAspectRatio="xMidYMid meet">

<g transform="translate(0.000000,4096.000000) scale(0.100000,-0.100000)"
fill="#000000" stroke="none">
<path d="M2340 40953 c-614 -60 -1158 -313 -1585 -738 -203 -202 -351 -405
-480 -659 -118 -232 -203 -495 -252 -781 -16 -94 -18 -428 -21 -5420 -2 -3690
0 -5354 8 -5432 56 -601 313 -1146 740 -1573 392 -391 888 -641 1440 -725 228
-35 567 -30 810 11 990 169 1803 927 2044 1904 78 317 70 -114 73 4328 l3
3972 3918 0 c4239 0 4028 -3 4282 51 965 205 1726 935 1963 1884 59 237 72
348 72 625 0 277 -13 388 -72 625 -198 796 -779 1457 -1543 1758 -210 83 -420
135 -650 161 -121 14 -690 16 -5425 14 -2909 0 -5306 -3 -5325 -5z"/>
<path d="M27945 40954 c-236 -28 -347 -49 -520 -100 -885 -262 -1581 -1015
-1770 -1914 -65 -308 -72 -670 -20 -977 126 -737 583 -1393 1238 -1778 262
-153 549 -256 887 -317 l125 -23 3978 -3 3977 -2 0 -3923 c0 -4223 -2 -4018
50 -4272 198 -959 927 -1723 1880 -1968 334 -87 713 -101 1070 -41 938 158
1736 863 2011 1779 40 136 68 259 90 410 21 133 21 10775 1 10910 -88 584
-330 1074 -732 1475 -393 394 -846 622 -1437 727 -92 16 -419 18 -5448 19
-2942 1 -5363 0 -5380 -2z"/>
<path d="M2297 15349 c-1109 -117 -2018 -938 -2245 -2029 -50 -237 -47 85 -47
-5640 0 -5180 1 -5369 19 -5485 120 -775 552 -1426 1212 -1827 284 -172 596
-285 954 -345 99 -17 397 -18 5420 -21 3684 -2 5349 0 5427 8 724 68 1372 432
1814 1016 215 286 374 632 453 990 65 296 73 676 20 981 -125 727 -564 1369
-1200 1755 -328 199 -684 317 -1074 358 -61 6 -1508 10 -4012 10 l-3918 0 -3
3973 c-3 4441 5 4010 -73 4327 -196 797 -778 1461 -1544 1763 -308 121 -619
178 -955 176 -93 -1 -205 -5 -248 -10z"/>
<path d="M38180 15354 c-14 -2 -65 -9 -115 -15 -446 -54 -908 -252 -1275 -545
-109 -88 -296 -275 -384 -384 -245 -307 -421 -673 -506 -1052 -59 -262 -54 96
-57 -4260 l-3 -3978 -3983 -3 -3982 -3 -142 -26 c-348 -66 -623 -170 -907
-342 -540 -329 -953 -867 -1125 -1466 -74 -258 -96 -420 -96 -720 0 -248 7
-325 46 -520 141 -694 586 -1316 1204 -1683 324 -193 672 -307 1055 -347 130
-13 10609 -13 10740 0 320 33 594 112 885 255 254 124 470 279 675 485 402
401 644 891 732 1475 20 134 20 10776 0 10910 -88 584 -332 1077 -731 1475
-397 396 -867 633 -1437 726 -94 15 -532 29 -594 18z"/>
</g>
</svg>
