<?xml version="1.0" encoding="UTF-8"?>
<!DOCTYPE svg PUBLIC "-//W3C//DTD SVG 1.1//EN" "http://www.w3.org/Graphics/SVG/1.1/DTD/svg11.dtd">
<svg xmlns="http://www.w3.org/2000/svg" version="1.1" width="512px" height="512px" style="shape-rendering:geometricPrecision; text-rendering:geometricPrecision; image-rendering:optimizeQuality; fill-rule:evenodd; clip-rule:evenodd" xmlns:xlink="http://www.w3.org/1999/xlink">
<g><path style="opacity:0.976" fill="#000000" d="M 242.5,97.5 C 304.679,95.1725 353.179,119.506 388,170.5C 420.849,227.595 421.849,285.262 391,343.5C 370.969,376.529 342.802,399.695 306.5,413C 301.788,414.443 297.955,413.277 295,409.5C 294.913,389.134 294.247,368.801 293,348.5C 291.54,341.715 288.374,335.882 283.5,331C 335.563,324.582 359.397,295.082 355,242.5C 354.294,237.01 352.961,231.677 351,226.5C 347.538,219.737 343.705,213.237 339.5,207C 343.788,193.322 343.288,179.822 338,166.5C 332.072,165.108 326.239,165.608 320.5,168C 311.448,172.526 302.448,177.026 293.5,181.5C 268.167,174.833 242.833,174.833 217.5,181.5C 209.219,177.359 200.886,173.193 192.5,169C 186.144,166.073 179.478,164.907 172.5,165.5C 167.814,179.251 167.481,193.085 171.5,207C 158.483,223.226 153.316,241.726 156,262.5C 157.349,292.134 171.515,312.634 198.5,324C 207.99,327.098 217.657,329.431 227.5,331C 221.368,337.222 218.034,344.722 217.5,353.5C 195.394,362.413 178.894,356.413 168,335.5C 161.18,326.495 152.347,322.662 141.5,324C 140.978,324.561 140.645,325.228 140.5,326C 145.327,330.361 150.16,334.861 155,339.5C 159.78,346.726 163.78,354.392 167,362.5C 173.125,370.817 181.291,375.983 191.5,378C 199.852,378.622 208.186,378.455 216.5,377.5C 216.667,388.172 216.5,398.839 216,409.5C 214,412.167 211.333,413.5 208,413.5C 156.664,395.83 122.331,361.163 105,309.5C 86.8886,242.193 102.722,184.36 152.5,136C 178.623,114.105 208.623,101.272 242.5,97.5 Z"/></g>
</svg>
