<?xml version="1.0" standalone="no"?>
<!DOCTYPE svg PUBLIC "-//W3C//DTD SVG 20010904//EN"
 "http://www.w3.org/TR/2001/REC-SVG-20010904/DTD/svg10.dtd">
<svg version="1.0" xmlns="http://www.w3.org/2000/svg"
 width="5001.000000pt" height="5001.000000pt" viewBox="0 0 5001.000000 5001.000000"
 preserveAspectRatio="xMidYMid meet">

<g transform="translate(0.000000,5001.000000) scale(0.100000,-0.100000)"
fill="#000000" stroke="none">
<path d="M34490 40159 c-52 -5 -378 -34 -725 -64 -346 -31 -859 -75 -1140
-100 -280 -24 -771 -67 -1090 -95 -2669 -233 -2837 -248 -2844 -258 -3 -6 -17
-129 -29 -274 -13 -145 -41 -459 -62 -698 -22 -239 -46 -516 -55 -615 -8 -99
-26 -301 -40 -450 -13 -148 -29 -326 -34 -395 -5 -69 -23 -276 -40 -460 -28
-315 -99 -1110 -121 -1375 -6 -66 -26 -286 -45 -490 -18 -203 -41 -455 -50
-560 -9 -104 -22 -262 -30 -350 -8 -88 -28 -317 -45 -510 -26 -301 -76 -866
-135 -1525 -9 -96 -27 -299 -40 -450 -22 -243 -52 -580 -85 -970 -6 -69 -28
-318 -50 -555 -21 -236 -48 -540 -60 -675 -12 -135 -46 -519 -75 -855 -30
-335 -64 -716 -75 -845 -11 -129 -47 -534 -80 -900 -33 -366 -71 -798 -85
-960 -40 -474 -52 -603 -125 -1415 -38 -423 -74 -833 -79 -910 -6 -77 -22
-261 -36 -410 -14 -148 -55 -598 -90 -1000 -102 -1146 -112 -1256 -164 -1850
-28 -308 -55 -625 -61 -705 -6 -80 -22 -257 -35 -395 -14 -137 -32 -340 -40
-450 -8 -110 -28 -339 -45 -510 -16 -170 -34 -373 -40 -450 -6 -77 -26 -311
-45 -520 -19 -209 -37 -407 -40 -440 -5 -66 -68 -782 -145 -1645 -27 -305 -56
-640 -65 -745 -9 -104 -31 -352 -50 -550 -19 -198 -41 -454 -50 -570 -9 -115
-27 -320 -40 -455 -13 -135 -45 -479 -70 -765 -25 -286 -68 -774 -95 -1084
-28 -310 -49 -566 -47 -567 2 -2 131 -13 288 -24 156 -11 298 -23 314 -25 17
-3 327 -25 690 -50 363 -25 737 -52 830 -60 94 -8 436 -33 760 -55 325 -22
664 -47 755 -55 91 -8 401 -31 690 -50 578 -39 770 -53 815 -60 47 -8 1236
-87 1240 -83 4 3 34 387 55 693 6 88 20 268 30 400 11 132 24 314 30 405 6 91
20 280 30 420 11 140 24 320 30 400 16 240 59 820 90 1245 17 220 35 468 41
550 5 83 17 231 24 330 8 99 19 254 25 345 6 91 17 244 25 340 8 96 19 247 25
335 11 168 23 336 40 545 5 69 14 197 20 285 16 248 48 636 54 642 4 5 1138
-33 1846 -62 458 -19 1098 -42 2945 -105 803 -28 1633 -57 1845 -65 212 -8
410 -15 441 -15 l57 0 6 117 c4 65 11 181 16 258 6 77 12 187 15 245 2 58 7
130 10 160 3 30 7 102 10 160 3 58 9 173 15 255 9 144 19 308 40 670 6 94 15
238 20 320 5 83 14 231 20 330 6 99 15 250 20 335 5 85 14 234 20 330 15 257
29 484 40 665 5 88 14 234 20 325 5 91 14 239 20 330 5 91 14 244 20 340 6 96
15 245 20 330 5 85 14 236 20 335 6 99 12 208 15 241 l4 62 -462 6 c-254 3
-1299 10 -2322 16 -1023 6 -2402 13 -3064 17 l-1204 6 6 86 c15 223 39 555 52
736 8 110 20 279 25 375 6 96 13 191 15 210 3 19 12 145 20 280 8 135 17 263
20 285 2 22 9 117 15 210 5 94 17 260 25 370 8 110 21 306 30 435 8 129 24
363 35 520 39 541 59 836 75 1065 30 440 55 801 70 995 9 107 20 272 26 365
17 282 34 504 40 509 5 6 1608 52 4484 131 2304 63 2440 67 2445 72 3 2 10
102 17 221 6 119 16 294 22 387 16 255 30 473 46 745 8 135 19 322 25 415 6
94 15 244 20 335 6 91 12 201 15 245 6 81 14 223 40 670 8 138 19 320 24 405
16 245 30 475 46 750 9 140 18 291 20 335 6 88 19 305 35 575 6 96 15 211 20
255 6 50 6 83 0 89 -6 6 -406 -13 -1102 -53 -601 -34 -1304 -73 -1563 -86
-258 -14 -861 -48 -1340 -75 -478 -27 -1169 -66 -1535 -85 -366 -19 -820 -44
-1009 -55 -189 -11 -346 -18 -349 -16 -4 5 8 187 28 441 6 66 15 188 20 270 6
83 17 245 25 360 9 116 20 273 25 350 5 77 14 196 20 265 5 69 12 161 15 205
3 44 12 170 20 280 8 110 22 295 30 410 9 116 22 300 30 410 27 366 46 628 60
825 25 334 35 472 40 550 3 41 10 134 15 205 5 72 12 166 15 210 3 44 12 163
20 265 8 102 21 284 30 405 8 121 20 274 25 340 5 66 12 162 16 213 l7 92 -49
-1 c-27 -1 -92 -6 -144 -10z"/>
<path d="M21500 39025 c-267 -24 -645 -57 -840 -74 -986 -87 -2037 -178 -3225
-282 -324 -28 -591 -53 -593 -54 -2 -2 -21 -146 -43 -322 -21 -175 -48 -392
-60 -483 -11 -91 -35 -293 -54 -450 -18 -157 -38 -314 -44 -350 -5 -36 -22
-171 -36 -300 -14 -129 -30 -260 -35 -290 -5 -30 -23 -170 -40 -310 -16 -140
-38 -325 -49 -410 -31 -243 -60 -475 -91 -735 -45 -365 -97 -787 -113 -915 -9
-63 -39 -309 -68 -547 l-52 -432 -61 -5 c-70 -7 -2513 -144 -3231 -181 -264
-14 -795 -43 -1180 -65 -385 -22 -707 -40 -716 -40 -19 0 -31 -52 -54 -230
-22 -173 -63 -472 -80 -590 -16 -113 -39 -278 -60 -430 -70 -504 -89 -644
-105 -765 -40 -295 -50 -371 -55 -395 -6 -29 -52 -367 -120 -882 -8 -59 -19
-136 -25 -170 -9 -57 -43 -305 -101 -733 -11 -82 -26 -193 -34 -245 -29 -197
-29 -180 5 -180 67 0 4984 139 5103 144 l127 6 -5 -37 c-15 -113 -55 -442
-109 -893 -14 -118 -30 -244 -36 -280 -6 -36 -19 -141 -30 -235 -18 -159 -29
-246 -66 -535 -8 -63 -26 -205 -39 -315 -13 -110 -36 -290 -49 -400 -14 -110
-52 -423 -85 -695 -34 -272 -68 -544 -76 -605 -8 -60 -24 -186 -35 -280 -10
-93 -31 -261 -45 -372 -39 -313 -73 -589 -100 -803 -13 -107 -29 -229 -34
-270 -6 -41 -11 -82 -11 -90 0 -12 -10 -15 -37 -13 -21 1 -1098 7 -2393 13
-1295 6 -2479 12 -2629 13 l-275 2 -7 -35 c-4 -19 -17 -109 -29 -200 -12 -91
-27 -210 -35 -265 -7 -55 -20 -152 -29 -215 -8 -63 -29 -218 -46 -345 -17
-126 -37 -279 -45 -340 -8 -60 -21 -161 -30 -222 -38 -284 -95 -704 -114 -858
-6 -44 -17 -129 -26 -190 -50 -364 -112 -832 -125 -935 -11 -89 -28 -219 -54
-405 -30 -214 -47 -342 -71 -530 -13 -104 -29 -223 -35 -263 -7 -41 -10 -76
-7 -79 3 -2 385 -18 849 -34 1918 -66 3143 -110 3468 -123 190 -8 512 -20 715
-27 204 -7 371 -13 372 -13 2 -2 -35 -316 -106 -891 -11 -88 -27 -216 -36
-285 -8 -69 -22 -177 -30 -240 -14 -110 -40 -321 -105 -865 -17 -137 -35 -285
-41 -327 -5 -43 -19 -153 -30 -245 -11 -93 -28 -238 -39 -323 -10 -85 -28
-229 -39 -320 -11 -91 -30 -238 -41 -327 -62 -498 -144 -1160 -180 -1468 -35
-291 -50 -419 -65 -530 -8 -60 -19 -150 -25 -200 -6 -49 -14 -116 -19 -148 -5
-41 -4 -60 3 -63 6 -2 146 -13 311 -24 165 -11 343 -24 395 -30 52 -5 426 -32
830 -60 404 -27 778 -54 830 -60 52 -6 392 -31 755 -55 363 -25 734 -52 825
-60 91 -8 464 -35 830 -60 366 -25 682 -47 702 -50 43 -5 38 -19 63 210 8 77
30 284 49 460 19 176 40 372 46 435 6 63 15 147 21 185 5 39 23 198 39 355 31
307 59 569 91 855 11 99 33 308 49 465 17 157 32 296 35 310 3 14 16 140 30
280 14 140 30 289 35 330 6 41 23 201 40 355 28 272 85 794 155 1435 18 173
44 412 56 530 12 118 25 219 29 223 4 4 470 -8 1036 -28 2619 -90 3334 -116
3529 -125 316 -14 605 -23 605 -19 0 2 25 261 55 574 31 314 65 671 76 795 11
124 45 473 74 775 30 303 73 741 95 975 22 234 60 639 85 900 100 1051 126
1333 121 1337 -2 3 -1147 12 -2543 20 -1396 8 -2539 17 -2541 18 -2 1 11 141
28 311 70 704 81 824 110 1134 16 179 37 386 45 460 8 74 31 308 50 520 19
212 42 444 50 515 8 72 28 272 44 445 54 565 111 1152 126 1295 8 77 37 381
65 676 27 295 52 561 56 591 l6 55 212 6 c116 4 877 25 1691 47 3187 87 3187
87 3194 99 4 6 15 98 24 204 10 105 31 318 47 472 16 154 36 357 44 450 9 94
38 391 66 660 28 270 86 852 130 1295 103 1038 157 1575 179 1778 9 90 14 165
10 168 -8 5 -378 -15 -1809 -96 -580 -33 -1354 -76 -1720 -95 -366 -20 -854
-46 -1085 -60 -230 -13 -420 -23 -421 -22 -1 1 11 124 27 272 16 149 67 646
114 1105 47 459 97 934 110 1055 13 121 58 553 100 960 42 407 98 947 125
1200 46 430 105 996 112 1075 3 34 2 35 -32 37 -19 1 -253 -18 -520 -42z"/>
</g>
</svg>
