<?xml version="1.0" encoding="UTF-8"?>
<!DOCTYPE svg PUBLIC "-//W3C//DTD SVG 1.1//EN" "http://www.w3.org/Graphics/SVG/1.1/DTD/svg11.dtd">
<svg xmlns="http://www.w3.org/2000/svg" version="1.1" width="512px" height="512px" style="shape-rendering:geometricPrecision; text-rendering:geometricPrecision; image-rendering:optimizeQuality; fill-rule:evenodd; clip-rule:evenodd" xmlns:xlink="http://www.w3.org/1999/xlink">
<g><path style="opacity:0.024" fill="#43443f" d="M 15.5,0.5 C 17.1992,0.339822 18.8659,0.506489 20.5,1C 14.6667,8.16667 8.16667,14.6667 1,20.5C 0.143313,17.4495 0.809979,14.7828 3,12.5C 7.06209,8.26879 11.2288,4.26879 15.5,0.5 Z"/></g>
<g><path style="opacity:0.034" fill="#43443f" d="M 35.5,0.5 C 37.1992,0.339822 38.8659,0.506489 40.5,1C 28,14.8333 14.8333,28 1,40.5C 0.143313,37.4495 0.809979,34.7828 3,32.5C 13.7284,21.604 24.5617,10.9373 35.5,0.5 Z"/></g>
<g><path style="opacity:0.037" fill="#43443f" d="M 55.5,0.5 C 57.1992,0.339822 58.8659,0.506489 60.5,1C 41.3333,21.5 21.5,41.3333 1,60.5C 0.143313,57.4495 0.809979,54.7828 3,52.5C 20.395,34.9377 37.895,17.6044 55.5,0.5 Z"/></g>
<g><path style="opacity:0.039" fill="#43443f" d="M 75.5,0.5 C 77.1992,0.339822 78.8659,0.506489 80.5,1C 54.6667,28.1667 28.1667,54.6667 1,80.5C 0.143313,77.4495 0.809979,74.7828 3,72.5C 27.0616,48.2713 51.2283,24.2713 75.5,0.5 Z"/></g>
<g><path style="opacity:0.04" fill="#43443f" d="M 95.5,0.5 C 97.1992,0.339822 98.8659,0.506489 100.5,1C 68,34.8333 34.8333,68 1,100.5C 0.143313,97.4495 0.809979,94.7828 3,92.5C 33.7283,61.6047 64.5616,30.938 95.5,0.5 Z"/></g>
<g><path style="opacity:0.04" fill="#43443f" d="M 115.5,0.5 C 117.199,0.339822 118.866,0.506489 120.5,1C 81.3333,41.5 41.5,81.3333 1,120.5C 0.143313,117.449 0.809979,114.783 3,112.5C 40.3949,74.9381 77.8949,37.6048 115.5,0.5 Z"/></g>
<g><path style="opacity:0.041" fill="#43443f" d="M 135.5,0.5 C 137.199,0.339822 138.866,0.506489 140.5,1C 94.6667,48.1667 48.1667,94.6667 1,140.5C 0.143313,137.449 0.809979,134.783 3,132.5C 47.0616,88.2715 91.2283,44.2715 135.5,0.5 Z"/></g>
<g><path style="opacity:0.041" fill="#43443f" d="M 155.5,0.5 C 157.199,0.339822 158.866,0.506489 160.5,1C 108,54.8333 54.8333,108 1,160.5C 0.143313,157.449 0.809979,154.783 3,152.5C 53.7283,101.605 104.562,50.9382 155.5,0.5 Z"/></g>
<g><path style="opacity:0.041" fill="#43443f" d="M 175.5,0.5 C 177.199,0.339822 178.866,0.506489 180.5,1C 121.333,61.5 61.5,121.333 1,180.5C 0.143313,177.449 0.809979,174.783 3,172.5C 60.3949,114.938 117.895,57.6049 175.5,0.5 Z"/></g>
<g><path style="opacity:0.041" fill="#43433f" d="M 136.5,66.5 C 135.833,66.5 135.5,66.8333 135.5,67.5C 134.833,67.5 134.5,67.8333 134.5,68.5C 126.148,74.5249 117.815,80.5249 109.5,86.5C 136.965,58.5347 164.632,30.7013 192.5,3C 194.783,0.809979 197.449,0.143313 200.5,1C 179.327,23.0064 157.993,44.8397 136.5,66.5 Z"/></g>
<g><path style="opacity:0.04" fill="#43433f" d="M 176.5,46.5 C 175.833,46.5 175.5,46.8333 175.5,47.5C 171.505,49.1654 167.505,50.8321 163.5,52.5C 180.327,34.8396 197.66,17.673 215.5,1C 217.167,0.333333 218.833,0.333333 220.5,1C 205.994,16.3393 191.327,31.5059 176.5,46.5 Z"/></g>
<g><path style="opacity:0.039" fill="#43433f" d="M 205.5,37.5 C 204.833,37.5 204.5,37.8333 204.5,38.5C 201.5,39.1667 198.5,39.8333 195.5,40.5C 208.327,26.8393 221.661,13.6726 235.5,1C 237.167,0.333333 238.833,0.333333 240.5,1C 228.994,13.3389 217.327,25.5055 205.5,37.5 Z"/></g>
<g><path style="opacity:0.038" fill="#43433f" d="M 229.5,33.5 C 226.833,33.8333 224.167,34.1667 221.5,34.5C 231.631,23.8683 241.965,13.3683 252.5,3C 254.783,0.809979 257.449,0.143313 260.5,1C 250.328,12.0053 239.994,22.8386 229.5,33.5 Z"/></g>
<g><path style="opacity:0.038" fill="#43443f" d="M 251.5,31.5 C 250.833,31.5 250.167,31.5 249.5,31.5C 247.833,31.5 246.167,31.5 244.5,31.5C 253.631,21.8683 262.964,12.3683 272.5,3C 274.783,0.809979 277.449,0.143313 280.5,1C 270.994,11.3385 261.328,21.5051 251.5,31.5 Z"/></g>
<g><path style="opacity:0.041" fill="#43433f" d="M 202.5,99.5 C 203.308,96.5498 204.642,93.8831 206.5,91.5C 208.167,88.8333 209.833,86.1667 211.5,83.5C 212.167,83.5 212.5,83.1667 212.5,82.5C 213.167,82.5 213.5,82.1667 213.5,81.5C 214.167,81.5 214.5,81.1667 214.5,80.5C 229.833,65.8333 244.833,50.8333 259.5,35.5C 260.167,35.5 260.5,35.1667 260.5,34.5C 261.167,34.5 261.5,34.1667 261.5,33.5C 262.5,33.1667 263.167,32.5 263.5,31.5C 273.298,22.2022 282.965,12.7022 292.5,3C 294.783,0.809979 297.449,0.143313 300.5,1C 268.326,34.3401 235.66,67.1735 202.5,99.5 Z"/></g>
<g><path style="opacity:0.042" fill="#43433f" d="M 188.5,133.5 C 188.885,129.956 189.885,126.623 191.5,123.5C 232.66,82.507 273.993,41.6737 315.5,1C 317.167,0.333333 318.833,0.333333 320.5,1C 276.993,45.6737 232.993,89.8403 188.5,133.5 Z"/></g>
<g><path style="opacity:0.042" fill="#43443f" d="M 182.5,159.5 C 182.833,156.833 183.167,154.167 183.5,151.5C 184.167,151.5 184.5,151.167 184.5,150.5C 234.66,100.507 284.993,50.6738 335.5,1C 337.167,0.333333 338.833,0.333333 340.5,1C 288.326,54.3404 235.66,107.174 182.5,159.5 Z"/></g>
<g><path style="opacity:0.042" fill="#43433f" d="M 180.5,181.5 C 180.401,178.763 180.735,176.096 181.5,173.5C 239.326,115.84 297.326,58.3405 355.5,1C 357.167,0.333333 358.833,0.333333 360.5,1C 300.993,61.6738 240.993,121.84 180.5,181.5 Z"/></g>
<g><path style="opacity:0.042" fill="#43443f" d="M 181.5,200.5 C 181.5,198.833 181.5,197.167 181.5,195.5C 181.5,194.833 181.5,194.167 181.5,193.5C 245.993,129.174 310.66,65.0072 375.5,1C 377.167,0.333333 378.833,0.333333 380.5,1C 314.659,68.0071 248.326,134.507 181.5,200.5 Z"/></g>
<g><path style="opacity:0.042" fill="#43433f" d="M 184.5,217.5 C 183.539,215.735 183.205,213.735 183.5,211.5C 253.993,141.174 324.66,71.0072 395.5,1C 397.167,0.333333 398.833,0.333333 400.5,1C 328.993,73.6738 256.993,145.841 184.5,217.5 Z"/></g>
<g><path style="opacity:0.042" fill="#43443f" d="M 188.5,233.5 C 187.833,232.167 187.167,230.833 186.5,229.5C 186.5,229.167 186.5,228.833 186.5,228.5C 262.659,152.507 338.993,76.6739 415.5,1C 417.167,0.333333 418.833,0.333333 420.5,1C 343.659,79.0072 266.326,156.507 188.5,233.5 Z"/></g>
<g><path style="opacity:0.042" fill="#43433f" d="M 193.5,248.5 C 192.463,247.07 191.796,245.403 191.5,243.5C 272.659,162.507 353.993,81.6739 435.5,1C 437.167,0.333333 438.833,0.333333 440.5,1C 358.659,84.0072 276.326,166.507 193.5,248.5 Z"/></g>
<g><path style="opacity:0.042" fill="#43433f" d="M 199.5,262.5 C 198.833,261.5 198.167,260.5 197.5,259.5C 197.5,258.833 197.5,258.167 197.5,257.5C 283.326,171.841 369.326,86.3406 455.5,1C 457.167,0.333333 458.833,0.333333 460.5,1C 373.993,88.6739 286.993,175.841 199.5,262.5 Z"/></g>
<g><path style="opacity:0.043" fill="#43433f" d="M 206.5,275.5 C 205.4,274.395 204.733,273.062 204.5,271.5C 294.326,180.841 384.659,90.6739 475.5,1C 477.167,0.333333 478.833,0.333333 480.5,1C 389.659,93.0072 298.326,184.507 206.5,275.5 Z"/></g>
<g><path style="opacity:0.043" fill="#43433f" d="M 214.5,287.5 C 213.512,286.205 212.512,284.872 211.5,283.5C 305.993,189.174 400.659,95.0073 495.5,1C 497.167,0.333333 498.833,0.333333 500.5,1C 405.659,97.0072 310.326,192.507 214.5,287.5 Z"/></g>
<g><path style="opacity:0.043" fill="#43443f" d="M 511.5,5.5 C 511.5,7.16667 511.5,8.83333 511.5,10.5C 415.86,106.806 319.86,202.806 223.5,298.5C 221.738,297.738 220.738,296.404 220.5,294.5C 316.632,198.868 412.632,103.035 508.5,7C 509.527,6.48672 510.527,5.98672 511.5,5.5 Z"/></g>
<g><path style="opacity:0.043" fill="#43443f" d="M 511.5,25.5 C 511.5,27.1667 511.5,28.8333 511.5,30.5C 418.86,123.473 326.194,216.473 233.5,309.5C 231.833,308.5 230.5,307.167 229.5,305.5C 322.632,212.868 415.632,120.035 508.5,27C 509.527,26.4867 510.527,25.9867 511.5,25.5 Z"/></g>
<g><path style="opacity:0.995" fill="#221e1f" d="M 249.5,31.5 C 250.167,31.5 250.833,31.5 251.5,31.5C 255.5,31.5 259.5,31.5 263.5,31.5C 263.167,32.5 262.5,33.1667 261.5,33.5C 260.833,33.5 260.5,33.8333 260.5,34.5C 259.833,34.5 259.5,34.8333 259.5,35.5C 241.5,47.5 226.5,62.5 214.5,80.5C 213.833,80.5 213.5,80.8333 213.5,81.5C 212.833,81.5 212.5,81.8333 212.5,82.5C 211.833,82.5 211.5,82.8333 211.5,83.5C 209.833,86.1667 208.167,88.8333 206.5,91.5C 205.761,91.369 205.094,91.5357 204.5,92C 146.965,149.701 89.2987,207.201 31.5,264.5C 31.5,260.167 31.5,255.833 31.5,251.5C 31.5,250.833 31.5,250.167 31.5,249.5C 104.5,177.167 177.167,104.5 249.5,31.5 Z"/></g>
<g><path style="opacity:0.999" fill="#231f20" d="M 244.5,31.5 C 246.167,31.5 247.833,31.5 249.5,31.5C 177.167,104.5 104.5,177.167 31.5,249.5C 31.5,247.833 31.5,246.167 31.5,244.5C 31.4372,239.797 31.7705,235.13 32.5,230.5C 32.8333,227.833 33.1667,225.167 33.5,222.5C 96.5,160.167 159.167,97.5 221.5,34.5C 224.167,34.1667 226.833,33.8333 229.5,33.5C 234.5,32.8333 239.5,32.1667 244.5,31.5 Z"/></g>
<g><path style="opacity:0.998" fill="#231f20" d="M 221.5,34.5 C 159.167,97.5 96.5,160.167 33.5,222.5C 34.2854,217.12 35.2854,211.787 36.5,206.5C 37.3234,203.539 37.99,200.539 38.5,197.5C 40.4986,191.171 42.4986,184.837 44.5,178.5C 45.1667,178.5 45.5,178.167 45.5,177.5C 47.1117,173.942 48.445,170.275 49.5,166.5C 54.1617,157.503 58.8284,148.503 63.5,139.5C 64.1667,139.5 64.5,139.167 64.5,138.5C 65.1667,138.5 65.5,138.167 65.5,137.5C 71.5249,129.148 77.5249,120.815 83.5,112.5C 91.8333,103.5 100.5,94.8333 109.5,86.5C 117.815,80.5249 126.148,74.5249 134.5,68.5C 135.167,68.5 135.5,68.1667 135.5,67.5C 136.167,67.5 136.5,67.1667 136.5,66.5C 145.316,61.5911 154.316,56.9244 163.5,52.5C 167.505,50.8321 171.505,49.1654 175.5,47.5C 176.167,47.5 176.5,47.1667 176.5,46.5C 182.837,44.4986 189.171,42.4986 195.5,40.5C 198.5,39.8333 201.5,39.1667 204.5,38.5C 205.167,38.5 205.5,38.1667 205.5,37.5C 210.839,36.4992 216.172,35.4992 221.5,34.5 Z"/></g>
<g><path style="opacity:0.043" fill="#43443f" d="M 511.5,45.5 C 511.5,47.1667 511.5,48.8333 511.5,50.5C 422.194,140.14 332.86,229.806 243.5,319.5C 241.833,318.5 240.5,317.167 239.5,315.5C 329.299,226.201 418.965,136.701 508.5,47C 509.527,46.4867 510.527,45.9867 511.5,45.5 Z"/></g>
<g><path style="opacity:0.042" fill="#43433f" d="M 511.5,65.5 C 511.5,67.1667 511.5,68.8333 511.5,70.5C 425.86,156.473 340.194,242.473 254.5,328.5C 253.128,327.488 251.795,326.488 250.5,325.5C 336.861,238.139 423.861,151.472 511.5,65.5 Z"/></g>
<g><path style="opacity:0.042" fill="#43433f" d="M 511.5,85.5 C 511.5,87.1667 511.5,88.8333 511.5,90.5C 429.86,172.473 348.194,254.473 266.5,336.5C 264.596,336.262 263.262,335.262 262.5,333.5C 344.861,250.139 427.861,167.472 511.5,85.5 Z"/></g>
<g><path style="opacity:0.998" fill="#231f20" d="M 206.5,91.5 C 204.642,93.8831 203.308,96.5498 202.5,99.5C 197.757,106.987 194.09,114.987 191.5,123.5C 189.885,126.623 188.885,129.956 188.5,133.5C 188.011,134.995 187.345,136.329 186.5,137.5C 186.103,136.475 185.437,136.308 184.5,137C 134.299,187.368 83.9654,237.535 33.5,287.5C 33.5674,286.041 33.2341,284.708 32.5,283.5C 32.3542,279.481 32.0209,275.481 31.5,271.5C 31.5,269.167 31.5,266.833 31.5,264.5C 89.2987,207.201 146.965,149.701 204.5,92C 205.094,91.5357 205.761,91.369 206.5,91.5 Z"/></g>
<g><path style="opacity:0.042" fill="#43433f" d="M 511.5,105.5 C 511.5,107.167 511.5,108.833 511.5,110.5C 434.194,188.473 356.527,266.14 278.5,343.5C 276.847,343.34 275.514,342.674 274.5,341.5C 352.861,262.139 431.861,183.472 511.5,105.5 Z"/></g>
<g><path style="opacity:0.041" fill="#43433f" d="M 83.5,112.5 C 77.5249,120.815 71.5249,129.148 65.5,137.5C 64.8333,137.5 64.5,137.833 64.5,138.5C 63.8333,138.5 63.5,138.833 63.5,139.5C 42.8397,159.993 22.0064,180.327 1,200.5C 0.143313,197.449 0.809979,194.783 3,192.5C 29.7013,165.632 56.5347,138.965 83.5,112.5 Z"/></g>
<g><path style="opacity:0.042" fill="#43443f" d="M 511.5,125.5 C 511.5,127.167 511.5,128.833 511.5,130.5C 438.527,203.806 365.527,277.14 292.5,350.5C 290.716,350.107 289.05,349.441 287.5,348.5C 361.528,273.472 436.194,199.139 511.5,125.5 Z"/></g>
<g><path style="opacity:0.042" fill="#43433f" d="M 511.5,145.5 C 511.5,147.167 511.5,148.833 511.5,150.5C 443.194,219.14 374.86,287.806 306.5,356.5C 304.833,355.833 303.167,355.167 301.5,354.5C 370.861,284.139 440.861,214.472 511.5,145.5 Z"/></g>
<g><path style="opacity:0.999" fill="#231f20" d="M 186.5,137.5 C 185.673,141.807 185.007,146.14 184.5,150.5C 183.833,150.5 183.5,150.833 183.5,151.5C 183.167,154.167 182.833,156.833 182.5,159.5C 181.771,164.13 181.437,168.797 181.5,173.5C 180.735,176.096 180.401,178.763 180.5,181.5C 180.395,185.548 180.728,189.548 181.5,193.5C 181.5,194.167 181.5,194.833 181.5,195.5C 135.833,240.833 90.1667,286.167 44.5,331.5C 43.342,328.011 42.0086,324.678 40.5,321.5C 40.634,319.708 40.3007,318.042 39.5,316.5C 38.7903,312.975 37.7903,309.642 36.5,306.5C 36.6747,304.379 36.3414,302.379 35.5,300.5C 34.9401,296.807 34.2735,293.14 33.5,289.5C 33.5,288.833 33.5,288.167 33.5,287.5C 83.9654,237.535 134.299,187.368 184.5,137C 185.437,136.308 186.103,136.475 186.5,137.5 Z"/></g>
<g><path style="opacity:0.042" fill="#43443f" d="M 511.5,165.5 C 511.5,167.167 511.5,168.833 511.5,170.5C 448.527,233.806 385.527,297.14 322.5,360.5C 320.435,360.483 318.435,360.15 316.5,359.5C 380.861,294.139 445.861,229.472 511.5,165.5 Z"/></g>
<g><path style="opacity:0.04" fill="#43433f" d="M 49.5,166.5 C 48.445,170.275 47.1117,173.942 45.5,177.5C 44.8333,177.5 44.5,177.833 44.5,178.5C 30.1725,192.66 15.6725,206.66 1,220.5C 0.333333,218.833 0.333333,217.167 1,215.5C 16.6729,198.661 32.8396,182.327 49.5,166.5 Z"/></g>
<g><path style="opacity:0.042" fill="#43433f" d="M 511.5,185.5 C 511.5,187.167 511.5,188.833 511.5,190.5C 453.86,248.473 396.194,306.473 338.5,364.5C 336.5,364.167 334.5,363.833 332.5,363.5C 391.528,303.472 451.195,244.139 511.5,185.5 Z"/></g>
<g><path style="opacity:0.039" fill="#43443f" d="M 38.5,197.5 C 37.99,200.539 37.3234,203.539 36.5,206.5C 24.8388,217.994 13.0055,229.327 1,240.5C 0.333333,238.833 0.333333,237.167 1,235.5C 13.0059,222.328 25.5059,209.661 38.5,197.5 Z"/></g>
<g><path style="opacity:0.999" fill="#231f20" d="M 181.5,195.5 C 181.5,197.167 181.5,198.833 181.5,200.5C 181.931,204.337 182.598,208.003 183.5,211.5C 183.205,213.735 183.539,215.735 184.5,217.5C 185.008,221.197 185.674,224.864 186.5,228.5C 186.5,228.833 186.5,229.167 186.5,229.5C 143.833,272.833 100.833,315.833 57.5,358.5C 57.1667,358.5 56.8333,358.5 56.5,358.5C 55.1667,355.833 53.8333,353.167 52.5,350.5C 52.1075,348.716 51.4408,347.05 50.5,345.5C 48.8921,342.618 47.5587,339.618 46.5,336.5C 46.1075,334.716 45.4408,333.05 44.5,331.5C 90.1667,286.167 135.833,240.833 181.5,195.5 Z"/></g>
<g><path style="opacity:0.042" fill="#43443f" d="M 511.5,205.5 C 511.5,207.167 511.5,208.833 511.5,210.5C 459.86,262.473 408.194,314.473 356.5,366.5C 354.265,366.795 352.265,366.461 350.5,365.5C 403.528,311.472 457.195,258.138 511.5,205.5 Z"/></g>
<g><path style="opacity:0.038" fill="#43443f" d="M 33.5,222.5 C 33.1667,225.167 32.8333,227.833 32.5,230.5C 22.1719,240.661 11.6719,250.661 1,260.5C 0.143313,257.449 0.809979,254.783 3,252.5C 13.0349,242.298 23.2016,232.298 33.5,222.5 Z"/></g>
<g><path style="opacity:0.042" fill="#43433f" d="M 511.5,225.5 C 511.5,227.167 511.5,228.833 511.5,230.5C 466.527,275.806 421.527,321.14 376.5,366.5C 374.021,367.623 371.688,367.623 369.5,366.5C 416.195,318.805 463.528,271.805 511.5,225.5 Z"/></g>
<g><path style="opacity:0.999" fill="#231f20" d="M 186.5,229.5 C 187.167,230.833 187.833,232.167 188.5,233.5C 189.101,236.968 190.101,240.301 191.5,243.5C 191.796,245.403 192.463,247.07 193.5,248.5C 194.463,251.744 195.796,254.744 197.5,257.5C 197.5,258.167 197.5,258.833 197.5,259.5C 155.833,300.833 114.167,342.167 72.5,383.5C 72.5,382.833 72.1667,382.5 71.5,382.5C 70.0664,379.953 68.3998,377.619 66.5,375.5C 66.2624,373.596 65.2624,372.262 63.5,371.5C 62.6006,368.605 61.2672,365.938 59.5,363.5C 58.5592,361.95 57.8925,360.284 57.5,358.5C 100.833,315.833 143.833,272.833 186.5,229.5 Z"/></g>
<g><path style="opacity:0.038" fill="#43443f" d="M 31.5,244.5 C 31.5,246.167 31.5,247.833 31.5,249.5C 31.5,250.167 31.5,250.833 31.5,251.5C 21.5051,261.328 11.3385,270.994 1,280.5C 0.143313,277.449 0.809979,274.783 3,272.5C 12.3683,262.964 21.8683,253.631 31.5,244.5 Z"/></g>
<g><path style="opacity:0.042" fill="#43433f" d="M 511.5,245.5 C 511.5,247.167 511.5,248.833 511.5,250.5C 473.86,288.473 436.194,326.473 398.5,364.5C 397.833,364.5 397.5,364.833 397.5,365.5C 394.763,365.401 392.096,365.735 389.5,366.5C 429.528,325.471 470.195,285.138 511.5,245.5 Z"/></g>
<g><path style="opacity:0.998" fill="#231f20" d="M 197.5,259.5 C 198.167,260.5 198.833,261.5 199.5,262.5C 200.929,265.696 202.595,268.696 204.5,271.5C 204.733,273.062 205.4,274.395 206.5,275.5C 208.167,278.167 209.833,280.833 211.5,283.5C 212.512,284.872 213.512,286.205 214.5,287.5C 215.8,290.432 217.8,292.766 220.5,294.5C 220.738,296.404 221.738,297.738 223.5,298.5C 224.8,301.432 226.8,303.766 229.5,305.5C 230.5,307.167 231.833,308.5 233.5,309.5C 235.167,311.833 237.167,313.833 239.5,315.5C 240.5,317.167 241.833,318.5 243.5,319.5C 245.808,321.471 248.142,323.471 250.5,325.5C 251.795,326.488 253.128,327.488 254.5,328.5C 256.858,330.678 259.525,332.345 262.5,333.5C 263.262,335.262 264.596,336.262 266.5,336.5C 269.131,338.153 271.797,339.819 274.5,341.5C 275.514,342.674 276.847,343.34 278.5,343.5C 281.304,345.405 284.304,347.071 287.5,348.5C 289.05,349.441 290.716,350.107 292.5,350.5C 295.382,352.108 298.382,353.441 301.5,354.5C 303.167,355.167 304.833,355.833 306.5,356.5C 309.941,357.193 313.275,358.193 316.5,359.5C 318.435,360.15 320.435,360.483 322.5,360.5C 325.677,361.743 329.01,362.743 332.5,363.5C 334.5,363.833 336.5,364.167 338.5,364.5C 342.466,365.162 346.466,365.495 350.5,365.5C 352.265,366.461 354.265,366.795 356.5,366.5C 360.833,366.5 365.167,366.5 369.5,366.5C 371.688,367.623 374.021,367.623 376.5,366.5C 380.833,366.5 385.167,366.5 389.5,366.5C 352.167,404.167 314.833,441.833 277.5,479.5C 276.833,479.5 276.167,479.5 275.5,479.5C 271.069,479.231 266.735,479.564 262.5,480.5C 260.393,479.532 258.059,479.198 255.5,479.5C 251.167,479.5 246.833,479.5 242.5,479.5C 240.735,478.539 238.735,478.205 236.5,478.5C 232.534,477.838 228.534,477.505 224.5,477.5C 223.081,476.549 221.415,476.216 219.5,476.5C 215.9,475.613 212.233,474.613 208.5,473.5C 206.5,473.167 204.5,472.833 202.5,472.5C 199.183,471.503 195.85,470.503 192.5,469.5C 190.958,468.699 189.292,468.366 187.5,468.5C 184.322,466.991 180.989,465.658 177.5,464.5C 176.07,463.463 174.403,462.796 172.5,462.5C 169.618,460.892 166.618,459.559 163.5,458.5C 161.95,457.559 160.284,456.893 158.5,456.5C 156.151,454.659 153.485,453.326 150.5,452.5C 149.341,450.75 147.674,449.75 145.5,449.5C 142.869,447.847 140.203,446.181 137.5,444.5C 136.486,443.326 135.153,442.66 133.5,442.5C 131.14,440.147 128.473,438.147 125.5,436.5C 124.205,435.512 122.872,434.512 121.5,433.5C 119.343,431.588 117.009,429.921 114.5,428.5C 113.738,426.738 112.404,425.738 110.5,425.5C 108.806,423.139 106.806,421.139 104.5,419.5C 102.858,418.197 101.191,416.864 99.5,415.5C 97.8333,413.167 95.8333,411.167 93.5,409.5C 92.5,407.833 91.1667,406.5 89.5,405.5C 88.2003,402.568 86.2003,400.234 83.5,398.5C 82.9744,396.77 81.9744,395.436 80.5,394.5C 78.7267,391.94 76.7267,389.607 74.5,387.5C 74.2671,385.938 73.6005,384.605 72.5,383.5C 114.167,342.167 155.833,300.833 197.5,259.5 Z"/></g>
<g><path style="opacity:0.038" fill="#43443f" d="M 31.5,264.5 C 31.5,266.833 31.5,269.167 31.5,271.5C 21.5051,281.328 11.3385,290.994 1,300.5C 0.143313,297.449 0.809979,294.783 3,292.5C 12.3683,282.964 21.8683,273.631 31.5,264.5 Z"/></g>
<g><path style="opacity:0.041" fill="#43433f" d="M 511.5,265.5 C 511.5,267.167 511.5,268.833 511.5,270.5C 482.194,300.14 452.861,329.806 423.5,359.5C 420.183,360.497 416.85,361.497 413.5,362.5C 445.529,329.471 478.195,297.138 511.5,265.5 Z"/></g>
<g><path style="opacity:0.038" fill="#43443f" d="M 32.5,283.5 C 33.2341,284.708 33.5674,286.041 33.5,287.5C 33.5,288.167 33.5,288.833 33.5,289.5C 22.8386,299.994 12.0053,310.328 1,320.5C 0.143313,317.449 0.809979,314.783 3,312.5C 12.7016,302.631 22.5349,292.964 32.5,283.5 Z"/></g>
<g><path style="opacity:0.04" fill="#43433f" d="M 511.5,285.5 C 511.5,287.167 511.5,288.833 511.5,290.5C 493.194,309.14 474.861,327.807 456.5,346.5C 455.833,346.5 455.5,346.833 455.5,347.5C 453.5,348.5 451.5,349.5 449.5,350.5C 447.5,351.167 445.5,351.833 443.5,352.5C 465.529,329.47 488.196,307.137 511.5,285.5 Z"/></g>
<g><path style="opacity:0.038" fill="#43433f" d="M 35.5,300.5 C 36.3414,302.379 36.6747,304.379 36.5,306.5C 24.8388,317.994 13.0055,329.327 1,340.5C 0.143313,337.449 0.809979,334.783 3,332.5C 13.7016,321.631 24.5349,310.965 35.5,300.5 Z"/></g>
<g><path style="opacity:0.038" fill="#43433f" d="M 511.5,305.5 C 511.5,307.167 511.5,308.833 511.5,310.5C 499.527,323.14 487.194,335.473 474.5,347.5C 476.168,343.495 477.835,339.495 479.5,335.5C 489.865,325.134 500.532,315.134 511.5,305.5 Z"/></g>
<g><path style="opacity:0.039" fill="#43443f" d="M 39.5,316.5 C 40.3007,318.042 40.634,319.708 40.5,321.5C 27.8392,334.994 14.6725,347.994 1,360.5C 0.143313,357.449 0.809979,354.783 3,352.5C 15.0349,340.298 27.2015,328.298 39.5,316.5 Z"/></g>
<g><path style="opacity:0.04" fill="#43433f" d="M 511.5,325.5 C 511.5,327.167 511.5,328.833 511.5,330.5C 484.527,358.14 457.194,385.473 429.5,412.5C 439.57,401.429 448.903,389.763 457.5,377.5C 458.167,377.5 458.5,377.167 458.5,376.5C 459.167,376.5 459.5,376.167 459.5,375.5C 476.53,358.469 493.863,341.803 511.5,325.5 Z"/></g>
<g><path style="opacity:0.039" fill="#43433f" d="M 44.5,331.5 C 45.4408,333.05 46.1075,334.716 46.5,336.5C 31.5059,351.327 16.3393,365.994 1,380.5C 0.143313,377.449 0.809979,374.783 3,372.5C 16.7015,358.631 30.5348,344.965 44.5,331.5 Z"/></g>
<g><path style="opacity:0.04" fill="#43433f" d="M 50.5,345.5 C 51.4408,347.05 52.1075,348.716 52.5,350.5C 35.5061,367.327 18.3394,383.994 1,400.5C 0.143313,397.449 0.809979,394.783 3,392.5C 18.7014,376.632 34.5348,360.965 50.5,345.5 Z"/></g>
<g><path style="opacity:0.041" fill="#43443f" d="M 511.5,345.5 C 511.5,347.167 511.5,348.833 511.5,350.5C 458.167,404.5 404.5,458.167 350.5,511.5C 348.833,511.5 347.167,511.5 345.5,511.5C 399.27,456.229 453.604,401.396 508.5,347C 509.527,346.487 510.527,345.987 511.5,345.5 Z"/></g>
<g><path style="opacity:0.992" fill="#231f20" d="M 479.5,335.5 C 477.835,339.495 476.168,343.495 474.5,347.5C 469.996,357.178 464.996,366.512 459.5,375.5C 458.833,375.5 458.5,375.833 458.5,376.5C 457.833,376.5 457.5,376.833 457.5,377.5C 448.903,389.763 439.57,401.429 429.5,412.5C 418.429,422.57 406.763,431.903 394.5,440.5C 393.833,440.5 393.5,440.833 393.5,441.5C 392.833,441.5 392.5,441.833 392.5,442.5C 383.194,447.487 373.86,452.487 364.5,457.5C 360.496,459.169 356.496,460.836 352.5,462.5C 351.833,462.5 351.5,462.833 351.5,463.5C 345.5,465.5 339.5,467.5 333.5,469.5C 371.415,430.084 409.915,391.084 449,352.5C 449.464,351.906 449.631,351.239 449.5,350.5C 451.5,349.5 453.5,348.5 455.5,347.5C 456.167,347.5 456.5,347.167 456.5,346.5C 464.353,342.821 471.853,338.488 479,333.5C 479.464,334.094 479.631,334.761 479.5,335.5 Z"/></g>
<g><path style="opacity:0.04" fill="#43443f" d="M 56.5,358.5 C 56.8333,358.5 57.1667,358.5 57.5,358.5C 57.8925,360.284 58.5592,361.95 59.5,363.5C 40.1729,382.66 20.6729,401.66 1,420.5C 0.143313,417.449 0.809979,414.783 3,412.5C 21.0351,394.632 38.8684,376.632 56.5,358.5 Z"/></g>
<g><path style="opacity:0.997" fill="#231f20" d="M 449.5,350.5 C 449.631,351.239 449.464,351.906 449,352.5C 409.915,391.084 371.415,430.084 333.5,469.5C 332.833,469.833 332.167,470.167 331.5,470.5C 328.402,470.756 325.402,471.422 322.5,472.5C 316.812,473.837 311.145,475.17 305.5,476.5C 302.794,476.575 300.127,476.908 297.5,477.5C 292.467,478.022 287.467,478.689 282.5,479.5C 280.833,479.5 279.167,479.5 277.5,479.5C 314.833,441.833 352.167,404.167 389.5,366.5C 392.096,365.735 394.763,365.401 397.5,365.5C 398.167,365.5 398.5,365.167 398.5,364.5C 403.537,364.092 408.537,363.426 413.5,362.5C 416.85,361.497 420.183,360.497 423.5,359.5C 430.322,357.56 436.989,355.226 443.5,352.5C 445.5,351.833 447.5,351.167 449.5,350.5 Z"/></g>
<g><path style="opacity:0.041" fill="#43443f" d="M 511.5,365.5 C 511.5,367.167 511.5,368.833 511.5,370.5C 464.833,417.833 417.833,464.833 370.5,511.5C 368.833,511.5 367.167,511.5 365.5,511.5C 412.603,462.896 460.27,414.729 508.5,367C 509.527,366.487 510.527,365.987 511.5,365.5 Z"/></g>
<g><path style="opacity:0.041" fill="#43433f" d="M 63.5,371.5 C 65.2624,372.262 66.2624,373.596 66.5,375.5C 45.1731,397.66 23.3398,419.327 1,440.5C 0.143313,437.449 0.809979,434.783 3,432.5C 23.3683,412.299 43.535,391.965 63.5,371.5 Z"/></g>
<g><path style="opacity:0.041" fill="#43433f" d="M 71.5,382.5 C 72.1667,382.5 72.5,382.833 72.5,383.5C 73.6005,384.605 74.2671,385.938 74.5,387.5C 50.5066,412.327 26.0066,436.66 1,460.5C 0.143313,457.449 0.809979,454.783 3,452.5C 26.4195,429.582 49.2528,406.249 71.5,382.5 Z"/></g>
<g><path style="opacity:0.04" fill="#43443f" d="M 511.5,385.5 C 511.5,387.167 511.5,388.833 511.5,390.5C 471.5,431.167 431.167,471.5 390.5,511.5C 388.833,511.5 387.167,511.5 385.5,511.5C 425.937,469.563 466.937,428.063 508.5,387C 509.527,386.487 510.527,385.987 511.5,385.5 Z"/></g>
<g><path style="opacity:0.041" fill="#434340" d="M 80.5,394.5 C 81.9744,395.436 82.9744,396.77 83.5,398.5C 56.5067,426.327 29.0067,453.66 1,480.5C 0.143313,477.449 0.809979,474.783 3,472.5C 29.0349,446.632 54.8682,420.632 80.5,394.5 Z"/></g>
<g><path style="opacity:0.041" fill="#43443f" d="M 89.5,405.5 C 91.1667,406.5 92.5,407.833 93.5,409.5C 62.8401,439.993 32.0067,470.326 1,500.5C 0.143313,497.449 0.809979,494.783 3,492.5C 32.0349,463.632 60.8682,434.632 89.5,405.5 Z"/></g>
<g><path style="opacity:0.04" fill="#43443f" d="M 511.5,405.5 C 511.5,407.167 511.5,408.833 511.5,410.5C 478.167,444.5 444.5,478.167 410.5,511.5C 408.833,511.5 407.167,511.5 405.5,511.5C 439.27,476.23 473.603,441.396 508.5,407C 509.527,406.487 510.527,405.987 511.5,405.5 Z"/></g>
<g><path style="opacity:0.041" fill="#43433f" d="M 99.5,415.5 C 101.191,416.864 102.858,418.197 104.5,419.5C 103.761,419.369 103.094,419.536 102.5,420C 71.9384,450.729 41.2717,481.229 10.5,511.5C 8.83333,511.5 7.16667,511.5 5.5,511.5C 5.98672,510.527 6.48672,509.527 7,508.5C 38.0348,477.632 68.8682,446.632 99.5,415.5 Z"/></g>
<g><path style="opacity:0.041" fill="#43433f" d="M 429.5,412.5 C 396.806,445.86 363.806,478.86 330.5,511.5C 328.833,511.5 327.167,511.5 325.5,511.5C 325.987,510.527 326.487,509.527 327,508.5C 349.035,486.632 370.868,464.632 392.5,442.5C 393.167,442.5 393.5,442.167 393.5,441.5C 394.167,441.5 394.5,441.167 394.5,440.5C 406.763,431.903 418.429,422.57 429.5,412.5 Z"/></g>
<g><path style="opacity:0.041" fill="#43433f" d="M 110.5,425.5 C 112.404,425.738 113.738,426.738 114.5,428.5C 86.4731,456.194 58.4731,483.861 30.5,511.5C 28.8333,511.5 27.1667,511.5 25.5,511.5C 53.1375,482.196 81.4709,453.529 110.5,425.5 Z"/></g>
<g><path style="opacity:0.039" fill="#43443f" d="M 511.5,425.5 C 511.5,427.167 511.5,428.833 511.5,430.5C 484.833,457.833 457.833,484.833 430.5,511.5C 428.833,511.5 427.167,511.5 425.5,511.5C 452.602,482.897 480.269,454.73 508.5,427C 509.527,426.487 510.527,425.987 511.5,425.5 Z"/></g>
<g><path style="opacity:0.041" fill="#43433f" d="M 121.5,433.5 C 122.872,434.512 124.205,435.512 125.5,436.5C 100.806,461.86 75.8063,486.86 50.5,511.5C 48.8333,511.5 47.1667,511.5 45.5,511.5C 45.9867,510.527 46.4867,509.527 47,508.5C 72.0349,483.632 96.8682,458.632 121.5,433.5 Z"/></g>
<g><path style="opacity:0.041" fill="#43433f" d="M 133.5,442.5 C 135.153,442.66 136.486,443.326 137.5,444.5C 115.473,467.194 93.1396,489.527 70.5,511.5C 68.8333,511.5 67.1667,511.5 65.5,511.5C 87.4703,487.863 110.137,464.863 133.5,442.5 Z"/></g>
<g><path style="opacity:0.038" fill="#43443f" d="M 511.5,445.5 C 511.5,447.167 511.5,448.833 511.5,450.5C 491.5,471.167 471.167,491.5 450.5,511.5C 448.833,511.5 447.167,511.5 445.5,511.5C 465.935,489.564 486.935,468.064 508.5,447C 509.527,446.487 510.527,445.987 511.5,445.5 Z"/></g>
<g><path style="opacity:0.04" fill="#43433f" d="M 145.5,449.5 C 147.674,449.75 149.341,450.75 150.5,452.5C 130.473,472.194 110.473,491.861 90.5,511.5C 88.8333,511.5 87.1667,511.5 85.5,511.5C 85.9867,510.527 86.4867,509.527 87,508.5C 106.702,488.965 126.202,469.299 145.5,449.5 Z"/></g>
<g><path style="opacity:0.04" fill="#43443f" d="M 158.5,456.5 C 160.284,456.893 161.95,457.559 163.5,458.5C 146.14,476.527 128.473,494.194 110.5,511.5C 108.833,511.5 107.167,511.5 105.5,511.5C 105.987,510.527 106.487,509.527 107,508.5C 124.368,491.299 141.535,473.965 158.5,456.5 Z"/></g>
<g><path style="opacity:0.04" fill="#43433f" d="M 364.5,457.5 C 346.806,475.86 328.806,493.86 310.5,511.5C 308.833,511.5 307.167,511.5 305.5,511.5C 320.469,495.197 335.802,479.197 351.5,463.5C 352.167,463.5 352.5,463.167 352.5,462.5C 356.496,460.836 360.496,459.169 364.5,457.5 Z"/></g>
<g><path style="opacity:0.04" fill="#43433f" d="M 172.5,462.5 C 174.403,462.796 176.07,463.463 177.5,464.5C 162.14,480.527 146.473,496.194 130.5,511.5C 128.833,511.5 127.167,511.5 125.5,511.5C 140.802,494.863 156.469,478.53 172.5,462.5 Z"/></g>
<g><path style="opacity:0.035" fill="#43443f" d="M 511.5,465.5 C 511.5,467.167 511.5,468.833 511.5,470.5C 498.167,484.5 484.5,498.167 470.5,511.5C 468.833,511.5 467.167,511.5 465.5,511.5C 479.266,496.232 493.6,481.398 508.5,467C 509.527,466.487 510.527,465.987 511.5,465.5 Z"/></g>
<g><path style="opacity:0.039" fill="#43433f" d="M 187.5,468.5 C 189.292,468.366 190.958,468.699 192.5,469.5C 178.806,483.86 164.806,497.86 150.5,511.5C 148.833,511.5 147.167,511.5 145.5,511.5C 158.802,496.531 172.802,482.197 187.5,468.5 Z"/></g>
<g><path style="opacity:0.039" fill="#43433f" d="M 331.5,470.5 C 318.14,484.527 304.473,498.194 290.5,511.5C 288.833,511.5 287.167,511.5 285.5,511.5C 297.468,498.198 309.801,485.198 322.5,472.5C 325.402,471.422 328.402,470.756 331.5,470.5 Z"/></g>
<g><path style="opacity:0.039" fill="#43443f" d="M 202.5,472.5 C 204.5,472.833 206.5,473.167 208.5,473.5C 196.14,486.527 183.473,499.194 170.5,511.5C 168.833,511.5 167.167,511.5 165.5,511.5C 177.468,498.198 189.801,485.198 202.5,472.5 Z"/></g>
<g><path style="opacity:0.038" fill="#43443f" d="M 219.5,476.5 C 221.415,476.216 223.081,476.549 224.5,477.5C 213.473,489.194 202.14,500.527 190.5,511.5C 188.833,511.5 187.167,511.5 185.5,511.5C 196.134,499.198 207.468,487.532 219.5,476.5 Z"/></g>
<g><path style="opacity:0.038" fill="#43433f" d="M 305.5,476.5 C 294.14,488.527 282.473,500.194 270.5,511.5C 268.833,511.5 267.167,511.5 265.5,511.5C 275.801,499.865 286.467,488.531 297.5,477.5C 300.127,476.908 302.794,476.575 305.5,476.5 Z"/></g>
<g><path style="opacity:0.038" fill="#43433f" d="M 236.5,478.5 C 238.735,478.205 240.735,478.539 242.5,479.5C 232.14,490.527 221.473,501.194 210.5,511.5C 208.833,511.5 207.167,511.5 205.5,511.5C 215.467,500.198 225.8,489.198 236.5,478.5 Z"/></g>
<g><path style="opacity:0.038" fill="#43443f" d="M 255.5,479.5 C 258.059,479.198 260.393,479.532 262.5,480.5C 251.807,490.861 241.14,501.194 230.5,511.5C 228.833,511.5 227.167,511.5 225.5,511.5C 235.134,500.532 245.134,489.865 255.5,479.5 Z"/></g>
<g><path style="opacity:0.038" fill="#43443f" d="M 275.5,479.5 C 276.167,479.5 276.833,479.5 277.5,479.5C 279.167,479.5 280.833,479.5 282.5,479.5C 272.14,490.527 261.473,501.194 250.5,511.5C 248.833,511.5 247.167,511.5 245.5,511.5C 255.134,500.532 265.134,489.865 275.5,479.5 Z"/></g>
<g><path style="opacity:0.029" fill="#43443f" d="M 511.5,485.5 C 511.5,487.167 511.5,488.833 511.5,490.5C 504.833,497.833 497.833,504.833 490.5,511.5C 488.833,511.5 487.167,511.5 485.5,511.5C 493.167,501.833 501.833,493.167 511.5,485.5 Z"/></g>
<g><path style="opacity:0.009" fill="#43443f" d="M 511.5,505.5 C 511.5,507.167 511.5,508.833 511.5,510.5C 510.833,510.5 510.5,510.833 510.5,511.5C 508.833,511.5 507.167,511.5 505.5,511.5C 506.5,508.5 508.5,506.5 511.5,505.5 Z"/></g>
</svg>
