<?xml version="1.0" encoding="UTF-8"?>
<!DOCTYPE svg PUBLIC "-//W3C//DTD SVG 1.1//EN" "http://www.w3.org/Graphics/SVG/1.1/DTD/svg11.dtd">
<svg xmlns="http://www.w3.org/2000/svg" version="1.1" width="512px" height="512px" style="shape-rendering:geometricPrecision; text-rendering:geometricPrecision; image-rendering:optimizeQuality; fill-rule:evenodd; clip-rule:evenodd" xmlns:xlink="http://www.w3.org/1999/xlink">
<g><path style="opacity:0.97" fill="#323332" d="M 249.5,-0.5 C 253.5,-0.5 257.5,-0.5 261.5,-0.5C 268.651,2.49218 273.151,7.82552 275,15.5C 275.667,38.1667 275.667,60.8333 275,83.5C 267.424,99.3727 256.258,102.539 241.5,93C 238.994,89.8207 237.161,86.3207 236,82.5C 235.333,59.8333 235.333,37.1667 236,14.5C 238.29,7.38267 242.79,2.38267 249.5,-0.5 Z"/></g>
<g><path style="opacity:0.959" fill="#323332" d="M 134.5,30.5 C 143.17,30.2523 150.003,33.5856 155,40.5C 165.587,58.6713 175.92,77.0047 186,95.5C 187.889,115.279 179.056,123.779 159.5,121C 155.759,119.262 152.592,116.762 150,113.5C 139.667,95.5 129.333,77.5 119,59.5C 114.78,44.5975 119.947,34.9308 134.5,30.5 Z"/></g>
<g><path style="opacity:0.96" fill="#323332" d="M 370.5,30.5 C 387.506,31.0033 395.006,39.67 393,56.5C 382.601,75.6298 371.934,94.6298 361,113.5C 352.385,123.113 342.552,124.613 331.5,118C 324.558,111.041 322.724,102.874 326,93.5C 336.788,74.0874 347.955,54.9207 359.5,36C 362.99,33.588 366.657,31.7547 370.5,30.5 Z"/></g>
<g><path style="opacity:0.96" fill="#323332" d="M 45.5,117.5 C 51.072,116.99 56.4053,117.823 61.5,120C 78.8333,130 96.1667,140 113.5,150C 125.074,160.631 125.408,171.631 114.5,183C 107.797,186.731 100.797,187.397 93.5,185C 74.3364,174.253 55.3364,163.253 36.5,152C 28.3958,141.738 28.7291,131.738 37.5,122C 40.0993,120.205 42.7659,118.705 45.5,117.5 Z"/></g>
<g><path style="opacity:0.971" fill="#323332" d="M 240.5,117.5 C 289.068,114.182 329.568,130.515 362,166.5C 392.045,205.082 400.711,248.082 388,295.5C 368.694,351.907 329.527,384.407 270.5,393C 221.914,396.81 181.414,380.644 149,344.5C 118.955,305.918 110.289,262.918 123,215.5C 142.538,159.166 181.705,126.499 240.5,117.5 Z M 246.5,157.5 C 296.747,156.955 330.914,179.955 349,226.5C 360.569,276.5 344.736,315 301.5,342C 257.863,361.803 218.696,355.303 184,322.5C 155.088,288.108 150.088,250.441 169,209.5C 186.396,179.606 212.23,162.272 246.5,157.5 Z"/></g>
<g><path style="opacity:0.96" fill="#323332" d="M 454.5,117.5 C 473.748,116.577 481.914,125.577 479,144.5C 475.861,150.306 471.361,154.806 465.5,158C 448.833,167.333 432.167,176.667 415.5,186C 395.721,187.889 387.221,179.056 390,159.5C 391.738,155.759 394.238,152.592 397.5,150C 416.595,139.126 435.595,128.292 454.5,117.5 Z"/></g>
<g><path style="opacity:0.97" fill="#323332" d="M -0.5,261.5 C -0.5,257.5 -0.5,253.5 -0.5,249.5C 2.49218,242.349 7.82552,237.849 15.5,236C 38.1667,235.333 60.8333,235.333 83.5,236C 99.3727,243.576 102.539,254.742 93,269.5C 89.8207,272.006 86.3207,273.839 82.5,275C 59.8333,275.667 37.1667,275.667 14.5,275C 7.38267,272.71 2.38267,268.21 -0.5,261.5 Z"/></g>
<g><path style="opacity:0.97" fill="#323332" d="M 511.5,249.5 C 511.5,253.5 511.5,257.5 511.5,261.5C 508.508,268.651 503.174,273.151 495.5,275C 472.833,275.667 450.167,275.667 427.5,275C 411.627,267.424 408.461,256.258 418,241.5C 421.179,238.994 424.679,237.161 428.5,236C 451.167,235.333 473.833,235.333 496.5,236C 503.617,238.29 508.617,242.79 511.5,249.5 Z"/></g>
<g><path style="opacity:0.96" fill="#323332" d="M 95.5,324.5 C 115.261,323.091 123.761,332.091 121,351.5C 119.262,355.241 116.762,358.408 113.5,361C 95.5,371.333 77.5,381.667 59.5,392C 38.7411,395.906 29.5745,387.406 32,366.5C 33.7653,362.136 36.5987,358.636 40.5,356C 58.896,345.473 77.2293,334.973 95.5,324.5 Z"/></g>
<g><path style="opacity:0.96" fill="#323332" d="M 403.5,324.5 C 408.267,324.191 412.934,324.691 417.5,326C 436.664,336.747 455.664,347.747 474.5,359C 481.851,367.77 482.351,376.936 476,386.5C 470.1,392.688 462.933,394.854 454.5,393C 435.37,382.601 416.37,371.934 397.5,361C 387.887,352.385 386.387,342.552 393,331.5C 395.998,328.262 399.498,325.929 403.5,324.5 Z"/></g>
<g><path style="opacity:0.96" fill="#323332" d="M 164.5,388.5 C 182.649,390.125 189.483,399.792 185,417.5C 174.253,436.664 163.253,455.664 152,474.5C 140.07,483.046 129.404,481.713 120,470.5C 117.657,465.398 116.99,460.064 118,454.5C 128.399,435.37 139.066,416.37 150,397.5C 154.015,392.946 158.848,389.946 164.5,388.5 Z"/></g>
<g><path style="opacity:0.96" fill="#323332" d="M 342.5,388.5 C 349.862,388.93 356.028,391.93 361,397.5C 371.333,415.5 381.667,433.5 392,451.5C 395.906,472.259 387.406,481.426 366.5,479C 362.136,477.235 358.636,474.401 356,470.5C 345.413,452.329 335.08,433.995 325,415.5C 322.72,400.99 328.553,391.99 342.5,388.5 Z"/></g>
<g><path style="opacity:0.97" fill="#323332" d="M 261.5,511.5 C 257.5,511.5 253.5,511.5 249.5,511.5C 242.349,508.508 237.849,503.174 236,495.5C 235.333,472.833 235.333,450.167 236,427.5C 243.576,411.627 254.742,408.461 269.5,418C 272.006,421.179 273.839,424.679 275,428.5C 275.667,451.167 275.667,473.833 275,496.5C 272.71,503.617 268.21,508.617 261.5,511.5 Z"/></g>
</svg>
