<?xml version="1.0" standalone="no"?>
<!DOCTYPE svg PUBLIC "-//W3C//DTD SVG 20010904//EN"
 "http://www.w3.org/TR/2001/REC-SVG-20010904/DTD/svg10.dtd">
<svg version="1.0" xmlns="http://www.w3.org/2000/svg"
 width="4096.000000pt" height="4096.000000pt" viewBox="0 0 4096.000000 4096.000000"
 preserveAspectRatio="xMidYMid meet">

<g transform="translate(0.000000,4096.000000) scale(0.100000,-0.100000)"
fill="#000000" stroke="none">
<path d="M19750 36940 c0 -15 -7 -20 -24 -20 -14 0 -37 -5 -53 -11 -15 -7 -93
-13 -173 -14 -80 -1 -224 -8 -320 -14 -96 -6 -207 -13 -246 -15 -39 -2 -78 -7
-85 -12 -7 -4 -47 -11 -89 -15 -41 -3 -136 -13 -210 -22 -74 -9 -202 -23 -285
-32 -82 -9 -175 -22 -205 -30 -30 -8 -129 -24 -220 -35 -91 -12 -196 -30 -235
-40 -38 -10 -113 -24 -165 -30 -52 -7 -160 -27 -240 -45 -80 -19 -188 -41
-240 -49 -52 -8 -130 -27 -173 -41 -43 -14 -110 -30 -149 -35 -92 -13 -110
-18 -188 -45 -36 -12 -90 -26 -120 -30 -30 -4 -102 -23 -160 -42 -58 -19 -137
-41 -175 -48 -39 -8 -93 -23 -120 -35 -28 -12 -83 -28 -123 -36 -40 -7 -91
-23 -115 -35 -23 -12 -87 -32 -142 -45 -55 -12 -123 -34 -152 -48 -28 -15 -78
-31 -110 -37 -32 -6 -86 -24 -120 -40 -35 -16 -83 -33 -108 -39 -25 -6 -73
-23 -108 -39 -34 -16 -80 -33 -102 -37 -22 -3 -69 -20 -105 -36 -36 -17 -92
-38 -125 -48 -33 -10 -87 -32 -120 -49 -33 -17 -69 -31 -80 -31 -11 0 -47 -14
-80 -31 -33 -17 -82 -38 -110 -46 -27 -8 -72 -27 -100 -43 -27 -15 -68 -33
-90 -40 -22 -6 -61 -23 -87 -36 -26 -14 -75 -34 -109 -45 -34 -11 -76 -31 -93
-44 -17 -12 -56 -30 -86 -40 -30 -10 -73 -28 -95 -41 -22 -12 -60 -30 -85 -40
-25 -9 -54 -25 -65 -34 -11 -9 -47 -27 -80 -40 -33 -13 -69 -31 -80 -40 -11
-9 -47 -27 -80 -40 -33 -13 -69 -31 -80 -40 -11 -9 -47 -27 -80 -40 -33 -13
-69 -31 -80 -40 -11 -9 -47 -27 -80 -40 -33 -13 -69 -31 -80 -40 -11 -10 -41
-27 -67 -38 -26 -11 -62 -32 -80 -45 -18 -14 -50 -30 -70 -36 -20 -7 -56 -28
-80 -46 -24 -19 -51 -35 -60 -35 -10 0 -47 -20 -84 -45 -36 -25 -71 -45 -78
-45 -7 0 -30 -13 -51 -30 -21 -16 -42 -30 -48 -30 -5 0 -40 -20 -77 -45 -37
-25 -70 -45 -74 -45 -6 0 -141 -85 -186 -117 -14 -10 -41 -25 -60 -34 -19 -9
-49 -28 -66 -42 -17 -14 -49 -36 -72 -49 -78 -44 -167 -101 -192 -124 -14 -12
-41 -29 -60 -38 -19 -9 -64 -38 -100 -66 -36 -28 -85 -63 -110 -80 -76 -49
-226 -156 -285 -203 -16 -13 -50 -35 -75 -50 -25 -15 -70 -48 -100 -73 -30
-24 -73 -57 -95 -71 -22 -15 -56 -41 -76 -58 -20 -16 -60 -48 -88 -70 -29 -22
-81 -62 -116 -90 -34 -27 -86 -68 -115 -90 -48 -37 -272 -224 -380 -317 -140
-121 -221 -191 -298 -261 -428 -383 -952 -907 -1287 -1287 -49 -56 -117 -132
-150 -169 -33 -37 -103 -119 -155 -181 -52 -62 -122 -145 -155 -184 -53 -61
-187 -231 -250 -315 -11 -14 -47 -60 -80 -101 -34 -41 -76 -95 -93 -120 -18
-25 -48 -65 -67 -90 -19 -25 -52 -70 -72 -100 -20 -30 -48 -69 -62 -86 -14
-17 -34 -44 -44 -60 -9 -16 -36 -54 -58 -84 -22 -30 -60 -84 -85 -120 -24 -36
-64 -92 -89 -125 -24 -33 -54 -77 -65 -98 -12 -21 -35 -58 -53 -82 -40 -55
-100 -150 -120 -191 -9 -17 -23 -37 -32 -44 -9 -8 -30 -39 -46 -69 -16 -31
-40 -71 -52 -88 -12 -18 -40 -62 -62 -98 -22 -37 -59 -96 -82 -133 -24 -36
-43 -70 -43 -76 0 -5 -12 -24 -26 -43 -14 -18 -35 -55 -46 -81 -11 -26 -31
-58 -44 -72 -13 -14 -30 -45 -39 -70 -9 -25 -27 -56 -40 -70 -13 -14 -31 -44
-39 -68 -8 -23 -28 -61 -44 -85 -15 -23 -36 -61 -47 -85 -10 -23 -24 -47 -31
-53 -7 -6 -25 -41 -39 -79 -14 -38 -32 -74 -40 -80 -8 -6 -26 -42 -40 -80 -14
-38 -32 -74 -40 -80 -8 -6 -26 -42 -40 -80 -14 -38 -32 -74 -40 -80 -8 -6 -26
-42 -40 -80 -14 -38 -33 -74 -40 -80 -8 -7 -23 -36 -34 -66 -12 -30 -32 -71
-45 -93 -13 -21 -30 -58 -36 -82 -6 -24 -25 -64 -41 -89 -15 -25 -37 -75 -49
-112 -11 -36 -27 -71 -35 -78 -8 -7 -25 -45 -37 -84 -12 -39 -31 -87 -44 -107
-13 -20 -30 -63 -40 -95 -9 -33 -29 -81 -44 -109 -16 -27 -31 -66 -35 -85 -4
-19 -20 -58 -35 -86 -16 -29 -36 -80 -45 -114 -9 -35 -27 -84 -40 -109 -13
-25 -32 -75 -41 -111 -9 -36 -27 -86 -39 -111 -13 -25 -31 -74 -40 -109 -9
-35 -27 -85 -41 -112 -13 -26 -31 -79 -39 -118 -8 -39 -26 -93 -40 -120 -14
-28 -33 -85 -41 -128 -9 -42 -29 -106 -44 -142 -16 -36 -34 -94 -40 -130 -6
-36 -23 -91 -37 -124 -13 -33 -29 -87 -34 -120 -6 -34 -25 -106 -44 -161 -18
-55 -38 -130 -44 -166 -6 -36 -22 -99 -36 -139 -14 -41 -32 -117 -40 -169 -8
-53 -26 -130 -40 -170 -14 -41 -32 -120 -40 -174 -8 -55 -28 -154 -44 -221
-17 -66 -35 -161 -41 -211 -6 -49 -24 -146 -39 -215 -16 -69 -34 -179 -41
-245 -6 -66 -20 -156 -30 -200 -19 -80 -27 -144 -55 -420 -29 -282 -36 -336
-45 -361 -6 -14 -10 -58 -10 -97 0 -40 -5 -103 -10 -142 -5 -38 -12 -171 -15
-295 -4 -140 -12 -243 -21 -273 -20 -73 -20 -1585 1 -1654 9 -28 15 -91 15
-153 1 -171 30 -602 48 -710 17 -97 40 -294 47 -390 8 -114 33 -297 45 -340 6
-19 22 -118 35 -220 14 -102 31 -210 40 -240 8 -30 22 -107 31 -170 8 -63 28
-170 45 -236 16 -67 36 -166 44 -221 8 -54 26 -133 40 -174 14 -40 32 -117 40
-170 8 -52 26 -128 40 -169 14 -40 30 -103 36 -139 6 -36 26 -111 44 -166 19
-55 38 -127 44 -161 5 -33 21 -87 34 -120 14 -33 31 -88 37 -124 6 -36 24 -94
40 -130 15 -36 35 -100 44 -142 8 -43 27 -100 41 -128 14 -27 32 -81 40 -120
8 -39 26 -92 39 -119 14 -26 32 -77 40 -112 8 -35 26 -84 39 -109 14 -25 32
-74 41 -110 9 -36 28 -86 41 -111 13 -25 31 -74 40 -109 9 -34 29 -85 45 -114
15 -28 31 -67 35 -86 4 -19 19 -57 35 -85 15 -27 35 -76 44 -109 10 -32 27
-75 40 -95 13 -20 32 -68 44 -107 12 -39 29 -77 37 -84 8 -7 24 -42 35 -78 12
-37 34 -87 49 -112 16 -25 35 -65 41 -89 6 -24 23 -61 36 -82 13 -22 33 -63
45 -93 11 -30 26 -59 34 -66 7 -6 26 -42 40 -80 14 -38 32 -74 40 -80 8 -6 26
-42 40 -80 14 -38 32 -74 40 -80 8 -6 26 -42 40 -80 14 -38 32 -74 40 -80 8
-6 26 -42 40 -80 14 -38 32 -73 39 -79 7 -6 21 -30 31 -53 11 -24 32 -62 47
-85 16 -24 36 -62 44 -85 8 -24 26 -54 39 -68 13 -14 31 -45 40 -70 9 -25 26
-56 39 -70 13 -14 33 -46 44 -72 11 -26 32 -63 46 -81 14 -19 26 -38 26 -43 0
-6 19 -40 42 -76 24 -37 61 -96 83 -133 22 -36 50 -80 62 -98 12 -17 36 -57
52 -88 16 -30 37 -61 46 -69 9 -7 23 -27 32 -44 20 -41 80 -136 120 -191 18
-24 41 -61 53 -82 11 -21 41 -65 65 -98 25 -33 65 -89 89 -125 25 -36 63 -90
85 -120 22 -30 49 -68 58 -84 10 -16 30 -43 44 -60 14 -17 42 -56 62 -86 20
-30 53 -75 72 -100 19 -25 49 -65 67 -90 17 -25 59 -79 93 -120 33 -41 69 -87
80 -101 63 -84 197 -254 250 -315 33 -39 103 -122 155 -184 52 -62 122 -144
155 -181 33 -37 101 -113 150 -169 335 -380 859 -904 1287 -1287 77 -70 158
-140 298 -261 108 -93 332 -280 380 -317 29 -22 81 -62 115 -90 35 -27 87 -68
116 -90 28 -22 68 -54 88 -70 20 -17 54 -43 76 -58 22 -14 65 -47 95 -71 30
-25 75 -58 100 -73 25 -15 59 -37 75 -50 59 -47 209 -154 285 -203 25 -17 74
-52 110 -80 36 -28 81 -57 100 -66 19 -9 46 -26 60 -38 25 -23 114 -80 192
-124 23 -13 55 -35 72 -49 17 -14 47 -33 66 -42 19 -9 46 -24 60 -34 45 -32
180 -117 186 -117 4 0 37 -20 74 -45 37 -25 72 -45 77 -45 6 0 27 -14 48 -30
21 -17 44 -30 51 -30 7 0 42 -20 78 -45 37 -25 74 -45 84 -45 9 0 36 -16 60
-35 24 -18 60 -39 80 -46 20 -6 52 -22 70 -36 18 -13 54 -34 80 -45 26 -11 56
-28 67 -38 11 -9 47 -27 80 -40 33 -13 69 -31 80 -40 11 -9 47 -27 80 -40 33
-13 69 -31 80 -40 11 -9 47 -27 80 -40 33 -13 69 -31 80 -40 11 -9 47 -27 80
-40 33 -13 69 -31 80 -40 11 -9 40 -25 65 -34 25 -10 63 -28 85 -40 22 -13 65
-31 95 -41 30 -10 69 -28 85 -40 17 -12 48 -28 70 -34 22 -7 75 -30 117 -52
42 -21 85 -39 96 -39 11 0 49 -15 85 -34 35 -19 86 -41 113 -49 27 -8 76 -29
109 -46 33 -17 69 -31 80 -31 11 0 47 -14 80 -31 33 -17 87 -39 120 -49 33
-10 89 -31 125 -48 36 -16 83 -33 105 -36 22 -4 68 -21 102 -37 35 -16 83 -33
108 -39 25 -6 73 -23 108 -39 34 -16 88 -34 120 -40 32 -6 82 -22 110 -37 29
-14 97 -36 152 -48 55 -13 119 -33 142 -45 24 -12 75 -28 115 -35 40 -8 95
-24 123 -36 27 -12 81 -27 120 -35 38 -7 117 -29 175 -48 58 -19 130 -38 160
-42 30 -4 84 -18 120 -30 78 -27 96 -32 188 -45 39 -5 106 -21 149 -35 43 -14
121 -33 173 -41 52 -8 160 -30 240 -49 80 -18 188 -38 240 -45 52 -6 127 -20
165 -30 39 -10 144 -28 235 -40 91 -11 190 -27 220 -35 30 -8 123 -21 205 -30
83 -9 211 -23 285 -32 74 -9 169 -19 210 -22 42 -4 82 -11 89 -15 7 -5 46 -10
85 -12 39 -2 150 -9 246 -15 96 -6 240 -13 320 -14 80 -1 158 -7 173 -14 16
-6 39 -11 53 -11 17 0 24 -5 24 -20 0 -20 7 -20 735 -20 728 0 735 0 735 20 0
15 7 20 24 20 14 0 37 5 53 11 15 7 93 13 173 14 80 1 224 8 320 14 96 6 207
13 246 15 39 2 78 7 85 12 7 4 47 11 89 15 41 3 136 13 210 22 74 9 203 23
285 32 83 9 175 22 205 30 30 8 129 24 220 35 91 12 197 30 235 40 39 10 113
24 165 30 52 7 160 27 240 45 80 19 188 41 240 49 52 8 130 27 173 41 43 14
110 30 149 35 92 13 110 18 188 45 36 12 90 26 120 30 30 4 102 23 160 42 58
19 137 41 175 48 39 8 93 23 120 35 28 12 83 28 123 36 40 7 91 23 115 35 23
12 87 32 142 45 55 12 123 34 152 48 28 15 78 31 110 37 32 6 86 24 120 40 35
16 83 33 108 39 25 6 73 23 108 39 34 16 80 33 102 37 22 3 69 20 105 36 36
17 92 38 125 48 33 10 87 32 120 49 33 17 69 31 80 31 11 0 47 14 80 31 33 17
82 38 109 46 27 8 78 30 113 49 36 19 74 34 85 34 11 0 54 18 96 39 42 22 95
45 117 52 22 6 54 22 70 34 17 12 55 30 85 40 30 10 73 28 95 41 22 12 60 30
85 40 25 9 54 25 65 34 11 9 47 27 80 40 33 13 69 31 80 40 11 9 47 27 80 40
33 13 69 31 80 40 11 9 47 27 80 40 33 13 69 31 80 40 11 9 47 27 80 40 33 13
69 31 80 40 11 10 41 27 67 38 26 11 62 32 80 45 18 14 50 30 70 36 20 7 56
28 80 46 24 19 51 35 60 35 10 0 47 20 84 45 36 25 71 45 78 45 7 0 30 14 51
30 21 17 42 30 48 30 5 0 40 20 77 45 37 25 70 45 74 45 6 0 141 85 186 117
14 10 41 25 60 34 19 9 49 28 66 42 17 14 49 36 72 49 78 44 167 101 192 124
14 12 41 29 60 38 19 9 64 38 100 66 36 28 85 63 110 80 76 49 226 156 285
203 17 13 50 35 75 50 25 15 70 48 100 73 30 24 73 57 95 71 22 15 56 41 76
58 20 16 60 48 88 70 29 22 81 63 116 90 34 28 86 68 115 90 48 37 272 224
380 317 140 121 221 191 298 261 428 383 952 907 1287 1287 50 56 117 132 150
169 33 37 103 119 155 181 52 62 122 145 155 184 53 61 187 231 250 315 11 14
47 60 80 101 34 41 76 95 93 120 18 25 48 65 67 90 19 25 52 70 72 100 20 30
48 69 62 86 14 17 34 44 44 60 9 16 36 54 58 84 22 30 60 84 85 120 24 36 64
92 89 125 24 33 54 77 65 98 12 21 35 58 53 82 40 55 100 150 120 191 9 17 23
37 32 44 9 8 30 39 46 69 16 31 40 71 52 88 12 18 40 62 62 98 22 37 59 96 83
133 23 36 42 70 42 76 0 5 12 24 26 43 14 18 35 55 46 81 11 26 31 58 44 72
13 14 30 45 39 70 9 25 27 56 40 70 13 14 31 44 39 68 8 23 28 61 44 85 15 23
36 61 47 85 10 23 24 47 31 53 7 6 25 41 39 79 14 38 32 74 40 80 8 6 26 42
40 80 14 38 32 74 40 80 8 6 26 42 40 80 14 38 32 74 40 80 8 6 26 42 40 80
14 38 33 74 40 80 8 7 23 36 34 66 12 30 32 71 45 93 13 21 30 58 36 82 6 24
25 64 41 89 15 25 37 75 49 112 11 36 27 71 35 78 8 7 25 45 37 84 12 39 31
87 44 107 13 20 30 63 40 95 9 33 29 82 44 109 16 28 31 66 35 85 4 19 20 58
35 86 16 29 36 80 45 114 9 35 27 84 40 109 13 25 32 75 41 111 9 36 27 86 39
111 13 25 31 74 40 109 9 35 27 85 41 112 13 26 31 79 39 118 8 39 26 93 40
120 14 28 33 85 41 128 9 42 29 106 44 142 16 36 34 94 40 130 6 36 23 91 37
124 13 33 29 87 34 120 6 34 25 106 44 161 18 55 38 130 44 166 6 36 22 99 36
139 14 41 32 117 40 169 8 53 26 130 40 170 14 41 32 120 40 174 8 55 28 154
44 221 17 66 35 162 41 211 6 50 24 146 39 215 16 69 34 179 40 245 7 66 19
146 27 177 18 71 40 233 49 353 7 100 30 295 47 395 18 110 47 540 48 712 0
62 5 119 12 135 10 23 26 507 28 843 1 216 -19 802 -28 830 -7 19 -12 84 -12
145 -1 174 -30 604 -48 715 -17 97 -40 294 -47 390 -8 114 -33 297 -45 340 -6
19 -22 118 -35 220 -14 102 -31 210 -40 240 -8 30 -22 107 -31 170 -8 63 -28
170 -45 236 -16 67 -36 166 -44 221 -8 54 -26 133 -40 174 -14 40 -32 117 -40
170 -8 52 -26 128 -40 169 -14 40 -30 103 -36 139 -6 36 -26 111 -44 166 -19
55 -38 127 -44 161 -5 33 -21 87 -34 120 -14 33 -31 88 -37 124 -6 36 -24 94
-40 130 -15 36 -35 100 -44 142 -8 43 -27 100 -41 128 -14 27 -32 81 -40 120
-8 39 -26 92 -39 118 -14 27 -32 77 -41 112 -9 35 -27 84 -40 109 -12 25 -30
75 -39 111 -9 36 -28 86 -41 111 -13 25 -31 74 -40 109 -9 34 -29 85 -45 114
-15 28 -31 67 -35 86 -4 19 -19 58 -35 85 -15 28 -35 76 -44 109 -10 32 -27
75 -40 95 -13 20 -32 68 -44 107 -12 39 -29 77 -37 84 -8 7 -24 42 -35 78 -12
37 -34 87 -49 112 -16 25 -35 65 -41 89 -6 24 -23 61 -36 82 -13 22 -33 63
-45 93 -11 30 -26 59 -34 66 -7 6 -26 42 -40 80 -14 38 -32 74 -40 80 -8 6
-26 42 -40 80 -14 38 -32 74 -40 80 -8 6 -26 42 -40 80 -14 38 -32 74 -40 80
-8 6 -26 42 -40 80 -14 38 -32 73 -39 79 -7 6 -21 30 -31 53 -11 24 -32 62
-47 85 -16 24 -36 62 -44 85 -8 24 -26 54 -39 68 -13 14 -31 45 -40 70 -9 25
-26 56 -39 70 -13 14 -33 46 -44 72 -11 26 -32 63 -46 81 -14 19 -26 38 -26
43 0 6 -19 40 -42 76 -24 37 -61 96 -83 133 -22 36 -50 80 -62 98 -12 17 -36
57 -52 88 -16 30 -37 61 -46 69 -9 7 -23 27 -32 44 -20 41 -80 136 -120 191
-18 24 -41 61 -53 82 -11 21 -41 65 -65 98 -25 33 -65 89 -89 125 -25 36 -63
90 -85 120 -22 30 -49 68 -58 84 -10 16 -30 43 -44 60 -14 17 -42 56 -62 86
-20 30 -53 75 -72 100 -19 25 -49 65 -67 90 -17 25 -59 79 -93 120 -33 41 -69
87 -80 101 -63 84 -197 254 -250 315 -33 39 -103 122 -155 184 -52 62 -122
144 -155 181 -33 37 -100 113 -150 169 -335 380 -859 904 -1287 1287 -77 70
-158 140 -298 261 -108 93 -332 280 -380 317 -29 22 -81 63 -115 90 -35 28
-87 68 -116 90 -28 22 -68 54 -88 70 -20 17 -54 43 -76 58 -22 14 -65 47 -95
71 -30 25 -75 58 -100 73 -25 15 -58 37 -75 50 -59 47 -209 154 -285 203 -25
17 -74 52 -110 80 -36 28 -81 57 -100 66 -19 9 -46 26 -60 38 -25 23 -114 80
-192 124 -23 13 -55 35 -72 49 -17 14 -47 33 -66 42 -19 9 -46 24 -60 34 -45
32 -180 117 -186 117 -4 0 -37 20 -74 45 -37 25 -72 45 -77 45 -6 0 -27 14
-48 30 -21 17 -44 30 -51 30 -7 0 -42 20 -78 45 -37 25 -74 45 -84 45 -9 0
-36 16 -60 35 -24 18 -60 39 -80 46 -20 6 -52 22 -70 36 -18 13 -54 34 -80 45
-26 11 -56 28 -67 38 -11 9 -47 27 -80 40 -33 13 -69 31 -80 40 -11 9 -47 27
-80 40 -33 13 -69 31 -80 40 -11 9 -47 27 -80 40 -33 13 -69 31 -80 40 -11 9
-47 27 -80 40 -33 13 -69 31 -80 40 -11 9 -40 25 -65 34 -25 10 -63 28 -85 40
-22 13 -65 31 -95 41 -30 10 -68 28 -85 40 -16 12 -48 28 -70 34 -22 7 -75 30
-117 52 -42 21 -85 39 -96 39 -11 0 -49 15 -85 34 -35 19 -86 41 -113 49 -27
8 -76 29 -109 46 -33 17 -69 31 -80 31 -11 0 -47 14 -80 31 -33 17 -87 39
-120 49 -33 10 -89 31 -125 48 -36 16 -83 33 -105 36 -22 4 -68 21 -102 37
-35 16 -83 33 -108 39 -25 6 -73 23 -108 39 -34 16 -88 34 -120 40 -32 6 -82
22 -110 37 -29 14 -97 36 -152 48 -55 13 -119 33 -142 45 -24 12 -75 28 -115
35 -40 8 -95 24 -123 36 -27 12 -81 27 -120 35 -38 7 -117 29 -175 48 -58 19
-130 38 -160 42 -30 4 -84 18 -120 30 -78 27 -96 32 -188 45 -39 5 -106 21
-149 35 -43 14 -121 33 -173 41 -52 8 -160 30 -240 49 -80 18 -188 38 -240 45
-52 6 -126 20 -165 30 -38 10 -144 28 -235 40 -91 11 -190 27 -220 35 -30 8
-122 21 -205 30 -82 9 -211 23 -285 32 -74 9 -169 19 -210 22 -42 4 -82 11
-89 15 -7 5 -46 10 -85 12 -39 2 -150 9 -246 15 -96 6 -240 13 -320 14 -80 1
-158 7 -173 14 -16 6 -39 11 -53 11 -17 0 -24 5 -24 20 0 20 -7 20 -735 20
-728 0 -735 0 -735 -20z m3153 -5721 c16 -20 17 -386 17 -7368 0 -6633 -2
-7349 -16 -7369 l-15 -22 -2404 0 -2404 0 -15 22 c-14 20 -16 736 -16 7371 l0
7348 23 22 22 22 2395 -2 2395 -3 18 -21z m-2154 -17149 c52 -6 110 -14 130
-20 20 -5 96 -21 169 -35 73 -15 161 -38 195 -52 34 -14 88 -31 120 -39 31 -8
81 -26 109 -40 29 -15 79 -35 113 -46 33 -11 78 -33 99 -49 22 -16 43 -29 47
-29 8 0 174 -98 212 -125 277 -201 451 -364 594 -555 23 -30 60 -77 82 -105
22 -27 50 -68 62 -90 12 -22 31 -53 44 -70 12 -16 32 -50 45 -75 12 -25 31
-55 41 -68 10 -13 25 -47 35 -75 9 -29 27 -68 39 -87 12 -19 32 -68 44 -107
12 -40 30 -88 41 -107 11 -18 27 -71 35 -117 8 -46 26 -117 39 -159 14 -41 30
-122 38 -180 14 -117 18 -573 5 -710 -9 -101 -80 -414 -109 -485 -12 -27 -30
-77 -40 -110 -19 -56 -77 -187 -119 -265 -10 -19 -30 -59 -44 -89 -15 -30 -39
-73 -54 -95 -16 -23 -35 -52 -44 -66 -167 -253 -416 -514 -644 -675 -96 -67
-214 -145 -221 -145 -4 0 -26 -14 -50 -30 -24 -16 -64 -37 -90 -46 -26 -10
-63 -28 -83 -41 -44 -29 -223 -99 -299 -118 -30 -8 -86 -25 -125 -39 -78 -28
-298 -70 -324 -61 -10 3 -39 -2 -67 -10 -71 -21 -507 -21 -578 0 -28 8 -57 13
-67 10 -26 -9 -246 33 -324 61 -38 14 -95 31 -125 39 -76 19 -255 89 -299 118
-20 13 -57 31 -83 41 -26 9 -66 30 -90 46 -24 16 -46 30 -50 30 -7 0 -127 79
-219 144 -235 166 -476 419 -646 676 -9 14 -28 43 -44 66 -15 22 -39 65 -54
95 -14 30 -34 70 -44 89 -42 78 -100 209 -119 265 -10 33 -28 83 -40 110 -29
71 -100 384 -109 485 -13 137 -9 593 5 710 8 58 24 139 38 180 13 42 31 113
39 159 8 46 24 99 35 117 11 19 29 67 41 107 12 39 32 88 44 107 12 19 30 58
39 87 10 28 25 62 35 75 10 13 29 43 41 68 13 25 33 59 45 75 13 17 32 48 44
70 12 22 40 63 62 90 22 28 59 75 82 105 47 63 178 211 221 249 16 14 58 54
95 87 56 52 150 126 278 219 38 27 204 125 212 125 4 0 25 13 47 29 21 16 66
38 99 49 34 11 84 31 113 46 28 14 78 32 109 40 32 8 86 25 120 39 34 14 122
37 195 52 73 14 151 31 174 36 106 27 475 37 653 19z"/>
</g>
</svg>
